<svg width="82" height="82" viewBox="0 0 82 82" fill="none" xmlns="http://www.w3.org/2000/svg">
<circle opacity="0.2" cx="40.8281" cy="40.8818" r="40.8281" fill="#0B0B0B"/>
<path d="M40.8266 50.2141C44.2678 47.4333 46.8664 44.7568 48.6224 42.1846C50.3771 39.6124 51.2544 37.1966 51.2544 34.9372C51.2544 32.9907 50.8985 31.3306 50.1866 29.9569C49.4733 28.5846 48.5953 27.4723 47.5525 26.62C46.5097 25.7691 45.3801 25.1524 44.1635 24.7701C42.9469 24.3877 41.8346 24.1965 40.8266 24.1965C39.8185 24.1965 38.7062 24.3877 37.4896 24.7701C36.2731 25.1524 35.1434 25.7691 34.1006 26.62C33.0578 27.4723 32.1805 28.5846 31.4686 29.9569C30.7553 31.3306 30.3987 32.9907 30.3987 34.9372C30.3987 37.1966 31.276 39.6124 33.0307 42.1846C34.7867 44.7568 37.3854 47.4333 40.8266 50.2141ZM40.8266 55.4801C35.9255 51.8651 32.2667 48.3544 29.8502 44.948C27.4351 41.5416 26.2275 38.2046 26.2275 34.9372C26.2275 32.4693 26.6711 30.3052 27.5581 28.4449C28.4438 26.5859 29.5818 25.0308 30.9722 23.7794C32.3626 22.5281 33.9268 21.5896 35.6648 20.9639C37.4027 20.3382 39.1233 20.0254 40.8266 20.0254C42.5298 20.0254 44.2504 20.3382 45.9883 20.9639C47.7263 21.5896 49.2905 22.5281 50.6809 23.7794C52.0713 25.0308 53.21 26.5859 54.0971 28.4449C54.9827 30.3052 55.4256 32.4693 55.4256 34.9372C55.4256 38.2046 54.2173 41.5416 51.8008 44.948C49.3857 48.3544 45.7277 51.8651 40.8266 55.4801ZM40.8266 38.7956C41.9736 38.7956 42.9559 38.3868 43.7735 37.5692C44.5896 36.7531 44.9977 35.7715 44.9977 34.6244C44.9977 33.4773 44.5896 32.495 43.7735 31.6775C42.9559 30.8613 41.9736 30.4533 40.8266 30.4533C39.6795 30.4533 38.6979 30.8613 37.8817 31.6775C37.0642 32.495 36.6554 33.4773 36.6554 34.6244C36.6554 35.7715 37.0642 36.7531 37.8817 37.5692C38.6979 38.3868 39.6795 38.7956 40.8266 38.7956ZM28.3131 61.7369C27.1613 61.7369 26.2275 60.8031 26.2275 59.6513C26.2275 58.4995 27.1613 57.5657 28.3131 57.5657H53.34C54.4918 57.5657 55.4256 58.4995 55.4256 59.6513C55.4256 60.8031 54.4918 61.7369 53.34 61.7369H28.3131Z" fill="white"/>
</svg>
