<svg width="44" height="44" viewBox="0 0 44 44" fill="none" xmlns="http://www.w3.org/2000/svg">
<circle cx="22.015" cy="22.015" r="20.715" fill="#F5FCFF" stroke="url(#paint0_linear_16_27)" stroke-width="1.4"/>
<path d="M19.8718 17.5371L19.8718 17.5371C20.0616 18.1377 19.9079 18.7821 19.47 19.2275L18.0446 21.1213C19.2505 23.3537 20.6578 24.7602 22.9074 25.9822L24.8524 24.5136C25.0409 24.3255 25.3088 24.1943 25.5918 24.1311C25.8816 24.0663 26.2041 24.0688 26.4997 24.1687C27.5222 24.5066 28.6017 24.6786 29.7025 24.6786C30.6238 24.6786 31.3721 25.4275 31.3722 26.3482V29.7024C31.3722 30.6232 30.6238 31.3721 29.7025 31.3721C20.303 31.3721 12.6564 23.7256 12.6564 14.3261C12.6564 13.4054 13.4047 12.6564 14.3261 12.6564H17.6897C18.6111 12.6564 19.3594 13.4053 19.3594 14.3262L19.8718 17.5371ZM19.8718 17.5371L19.8711 17.5348M19.8718 17.5371L19.8711 17.5348M19.8711 17.5348C19.532 16.5049 19.3594 15.425 19.3594 14.3262L19.8711 17.5348Z" fill="url(#paint1_linear_16_27)" stroke="url(#paint2_linear_16_27)" stroke-width="0.4"/>
<defs>
<linearGradient id="paint0_linear_16_27" x1="22.015" y1="2" x2="34.9734" y2="44.6652" gradientUnits="userSpaceOnUse">
<stop stop-color="#3F56AF"/>
<stop offset="1" stop-color="#4867B8" stop-opacity="0"/>
</linearGradient>
<linearGradient id="paint1_linear_16_27" x1="14.1526" y1="-39.7331" x2="-33.1026" y2="1.7564" gradientUnits="userSpaceOnUse">
<stop stop-color="#0E044B"/>
<stop offset="0.544503" stop-color="#2C309B"/>
<stop offset="1" stop-color="#89E8FD"/>
</linearGradient>
<linearGradient id="paint2_linear_16_27" x1="21.8312" y1="12.8564" x2="21.8312" y2="30.6419" gradientUnits="userSpaceOnUse">
<stop stop-color="#AACCFF"/>
<stop offset="0.494792" stop-color="#C1CFFF" stop-opacity="0"/>
<stop offset="1" stop-color="#DAE2FF"/>
</linearGradient>
</defs>
</svg>
