<svg width="60" height="29" viewBox="0 0 60 29" fill="none" xmlns="http://www.w3.org/2000/svg">
<path d="M8.21435 21.1454L7.34968 16.7885L5.31153 20.7981C5.15713 21.0822 4.97184 21.2085 4.72479 21.2085C4.44686 21.2085 4.26158 21.0822 4.10717 20.7981L2.06903 16.7885L1.20436 21.1454H0L1.35876 15.4309C1.38964 15.2731 1.48229 15.1152 1.57493 14.9889C1.72934 14.8942 1.85286 14.8311 2.03815 14.8311C2.25431 14.8311 2.50136 15.0205 2.68665 15.4309L4.72479 19.5036L6.76294 15.4309C6.97911 15.0205 7.19527 14.8311 7.41144 14.8311C7.56585 14.8311 7.72025 14.8942 7.84377 15.0205C7.9673 15.1468 8.02906 15.2731 8.05994 15.4309L9.4187 21.1454H8.21435Z" fill="white"/>
<path d="M10.7466 21.1444V14.9248H15.9963V15.9982H11.7965V20.0394H15.9963V21.1444H10.7466Z" fill="#C9252C"/>
<path d="M20.4128 15.9982V21.1444H19.3628V15.9982H16.9541V14.9248H22.8215V15.9982H20.4128Z" fill="white"/>
<path d="M29.2743 21.1444L27.5758 19.408H25.2906V18.303H28.1317C28.5331 18.303 28.8419 18.2082 29.1199 18.0504C29.4287 17.861 29.5831 17.5452 29.5831 17.1664C29.5831 16.3771 29.089 15.9982 28.1317 15.9982H24.673V21.1444H23.623V14.9248H27.9773C28.7493 14.9248 29.3978 15.0827 29.861 15.43C30.4169 15.8088 30.6948 16.4087 30.6948 17.1664C30.6948 17.6715 30.5404 18.1451 30.2007 18.524C29.9228 18.8712 29.4904 19.1238 28.9963 19.2501L30.8492 21.1128H29.2743V21.1444Z" fill="white"/>
<path d="M38.8169 20.2282C38.2301 20.828 37.5199 21.1437 36.6243 21.1437H34.9259C34.0303 21.1437 33.3201 20.828 32.7333 20.2282C32.1466 19.6283 31.8687 18.8706 31.8687 17.955C31.8687 17.0394 32.1466 16.3133 32.7333 15.745C33.3201 15.1767 34.0303 14.8926 34.9568 14.8926H36.6552C37.5508 14.8926 38.2919 15.1767 38.8786 15.745C39.4654 16.3133 39.7433 17.0394 39.7433 17.955C39.6815 18.8706 39.4036 19.6283 38.8169 20.2282ZM38.0757 16.5659C37.7052 16.187 37.2111 15.9976 36.6243 15.9976H34.9259C34.3391 15.9976 33.8759 16.187 33.5053 16.5659C33.1348 16.9447 32.9495 17.4499 32.9495 18.0497C32.9495 18.6496 33.1348 19.1232 33.5053 19.502C33.8759 19.8809 34.37 20.0703 34.9568 20.0703H36.6552C37.2419 20.0703 37.736 19.8809 38.1066 19.502C38.4772 19.1232 38.6934 18.6496 38.6934 18.0497C38.6316 17.4499 38.4463 16.9447 38.0757 16.5659Z" fill="white"/>
<path d="M5.80575 28.6278C4.9102 28.6278 4.19994 28.3437 3.6132 27.7122C3.02646 27.1124 2.74854 26.3546 2.74854 25.4391C2.74854 24.5235 3.02646 23.7974 3.6132 23.2291C4.19994 22.6608 4.9102 22.4082 5.83663 22.4082H9.26442V23.4816H5.80575C5.21901 23.4816 4.7558 23.6711 4.35435 24.0499C3.98377 24.4288 3.79849 24.9339 3.79849 25.5338C3.79849 26.1336 3.98377 26.6072 4.35435 26.9861C4.72492 27.3649 5.21901 27.5544 5.80575 27.5544H9.23354V28.6278H5.80575Z" fill="white"/>
<path d="M17.2304 27.7122C16.6437 28.3121 15.9334 28.6278 15.0379 28.6278H13.3394C12.4439 28.6278 11.7336 28.3437 11.1469 27.7122C10.5602 27.1124 10.2822 26.3546 10.2822 25.4391C10.2822 24.5235 10.5602 23.7974 11.1469 23.2291C11.7336 22.6608 12.4439 22.4082 13.3394 22.4082H15.0379C15.9334 22.4082 16.6746 22.6923 17.2613 23.2291C17.8172 23.7974 18.126 24.5235 18.126 25.4391C18.0951 26.3546 17.8172 27.1124 17.2304 27.7122ZM16.4893 24.0499C16.1187 23.6711 15.6246 23.4816 15.0379 23.4816H13.3394C12.7527 23.4816 12.2895 23.6711 11.9189 24.0499C11.5483 24.4288 11.3322 24.9339 11.3322 25.5338C11.3322 26.1336 11.5175 26.6072 11.888 26.9861C12.2586 27.3649 12.7527 27.5544 13.3394 27.5544H15.0379C15.6246 27.5544 16.1187 27.3649 16.4893 26.9861C16.8599 26.6072 17.0452 26.1336 17.0452 25.5338C17.0452 24.9339 16.8599 24.4288 16.4893 24.0499Z" fill="white"/>
<path d="M24.8279 28.6909C24.6426 28.6909 24.3955 28.5647 24.1794 28.3121L20.2575 24.3025V28.6278H19.2075V22.9449C19.2075 22.7871 19.2384 22.6608 19.331 22.5661C19.4237 22.4713 19.5163 22.4082 19.6707 22.4082C19.856 22.4082 20.0722 22.5029 20.2884 22.7239L24.1794 26.7335V22.4082H25.2293V28.0911C25.2293 28.4699 25.0749 28.6909 24.8279 28.6909Z" fill="white"/>
<path d="M32.4864 28.6909C32.3011 28.6909 32.0541 28.5647 31.8379 28.3121L27.9469 24.3025V28.6278H26.897V22.9449C26.897 22.7871 26.9279 22.6608 27.0205 22.5661C27.1131 22.4713 27.2058 22.4082 27.3602 22.4082C27.5455 22.4082 27.7616 22.5029 27.9778 22.7239L31.8688 26.7335V22.4082H32.9188V28.0911C32.8879 28.4699 32.7644 28.6909 32.4864 28.6909Z" fill="white"/>
<path d="M34.4941 28.6278V22.4082H39.7439V23.4816H35.5441V27.5228H39.7439V28.5962H34.4941V28.6278ZM36.0073 26.0074V24.9339H39.466V26.0074H36.0073Z" fill="#C9252C"/>
<path d="M44.0352 28.6278C43.1397 28.6278 42.4294 28.3437 41.8427 27.7122C41.256 27.1124 40.978 26.3546 40.978 25.4391C40.978 24.5235 41.256 23.7974 41.8427 23.2291C42.4294 22.6608 43.1397 22.4082 44.0352 22.4082H47.463V23.4816H44.0352C43.4485 23.4816 42.9853 23.6711 42.6147 24.0499C42.2441 24.4288 42.0589 24.9339 42.0589 25.5338C42.0589 26.1336 42.2441 26.6072 42.6147 26.9861C42.9853 27.3649 43.4794 27.5544 44.0661 27.5544H47.4939V28.6278H44.0352Z" fill="white"/>
<path d="M51.7258 23.4816V28.6278H50.6758V23.4816H48.2671V22.4082H54.1345V23.4816H51.7258Z" fill="white"/>
<path d="M15.4089 17.4824H12.0737V18.5559H15.4089V17.4824Z" fill="#C9252C"/>
<path d="M53.3927 10.4435L57.1602 14.2952C57.2219 14.3583 57.2219 14.4846 57.0984 14.6109L53.5162 18.2732C53.4236 18.3679 53.2692 18.3995 53.2074 18.3364L49.409 14.4846L47.8032 16.1264L51.5707 19.9781C52.528 20.9568 54.1029 20.9252 55.0911 19.9149L58.6733 16.2526C59.6615 15.2424 59.6924 13.6322 58.7351 12.6535L54.9676 8.80176L53.3927 10.4435Z" fill="#C9252C"/>
<path d="M40.9782 9.68404C41.4105 10.126 41.4105 10.8206 40.9782 11.2626C40.5458 11.7046 39.8664 11.7046 39.4341 11.2626C39.0018 10.8206 39.0018 10.126 39.4341 9.68404C39.8664 9.24204 40.5458 9.24204 40.9782 9.68404Z" fill="#C9252C"/>
<path d="M50.2438 19.1557C50.6761 19.5977 50.6761 20.2923 50.2438 20.7343C49.8115 21.1763 49.1321 21.1763 48.6997 20.7343C48.2674 20.2923 48.2674 19.5977 48.6997 19.1557C49.1321 18.7137 49.8115 18.7137 50.2438 19.1557Z" fill="#1063AF"/>
<path d="M50.1203 0.307823C50.5526 0.749824 50.5526 1.4444 50.1203 1.8864C49.6879 2.3284 49.0085 2.3284 48.5762 1.8864C48.1439 1.4444 48.1439 0.749824 48.5762 0.307823C49.0085 -0.102608 49.6879 -0.102608 50.1203 0.307823Z" fill="#00B9EC"/>
<path d="M59.3844 9.78146C59.8167 10.2235 59.8167 10.918 59.3844 11.36C58.9521 11.802 58.2727 11.802 57.8404 11.36C57.408 10.918 57.408 10.2235 57.8404 9.78146C58.2727 9.37103 58.9521 9.37103 59.3844 9.78146Z" fill="#DFA834"/>
<path d="M40.1761 12.6522C39.2188 13.6309 39.2497 15.2411 40.2379 16.2513L43.8201 19.9136C44.8083 20.9239 46.3832 20.9555 47.3405 19.9768L56.6048 10.5053L54.999 8.8636L45.7347 18.3351C45.673 18.3982 45.5494 18.3982 45.4259 18.2719L41.8437 14.6096C41.7511 14.5149 41.7202 14.3571 41.782 14.2939L45.5186 10.4738L43.9127 8.83203L40.1761 12.6522Z" fill="#00B9EC"/>
<path d="M43.9126 8.83125L45.5184 10.473L53.2387 2.58008C53.3004 2.51694 53.4239 2.51694 53.5475 2.64322L57.0988 6.30552C57.1914 6.40024 57.2223 6.5581 57.1605 6.62124L54.968 8.86282L56.5738 10.5045L58.7664 8.26296C59.7237 7.28424 59.6928 5.67409 58.7046 4.6638L55.1533 1.0015C54.1651 -0.00878455 52.5902 -0.0403561 51.6328 0.938362L43.9126 8.83125Z" fill="url(#paint0_linear_1_174)"/>
<path d="M40.2384 4.66576C39.2502 5.67605 39.2193 7.2862 40.1766 8.26491L42.3383 10.4433L43.9441 8.80163L41.8133 6.62319C41.7516 6.56005 41.7516 6.43376 41.8751 6.30748L45.3955 2.64518C45.4882 2.55046 45.6426 2.51889 45.7043 2.58204L47.8351 4.76047L49.4409 3.11875L47.3101 0.940315C46.3528 -0.038403 44.7779 -0.00683145 43.7897 1.00346L40.2384 4.66576Z" fill="#0062AF"/>
<path d="M47.8668 16.1263L49.4726 14.4846L43.667 8.51758L42.0303 10.1593L47.8668 16.1263Z" fill="#0062AF"/>
<path d="M40.2384 4.66576C39.2502 5.67605 39.2193 7.2862 40.1766 8.26491L42.3383 10.4433L43.9441 8.80163L41.8133 6.62319C41.7516 6.56005 41.7516 6.43376 41.8751 6.30748L45.3955 2.64518C45.4882 2.55046 45.6426 2.51889 45.7043 2.58204L47.8351 4.76047L49.4409 3.11875L47.3101 0.940315C46.3528 -0.038403 44.7779 -0.00683145 43.7897 1.00346L40.2384 4.66576Z" fill="#1063AF"/>
<path d="M47.8668 16.1263L49.4726 14.4846L43.667 8.51758L42.0303 10.1593L47.8668 16.1263Z" fill="#1063AF"/>
<path d="M51.0768 4.79039L49.4609 6.44238L55.4003 12.5146L57.0162 10.8626L51.0768 4.79039Z" fill="#C9252C"/>
<defs>
<linearGradient id="paint0_linear_1_174" x1="58.4283" y1="1.34086" x2="38.8162" y2="20.3242" gradientUnits="userSpaceOnUse">
<stop stop-color="#ED1C24"/>
<stop offset="0.2" stop-color="#FFF200"/>
<stop offset="0.4551" stop-color="#00A651"/>
<stop offset="0.8" stop-color="#343290"/>
<stop offset="0.8258" stop-color="#00A7DF"/>
<stop offset="1" stop-color="#EA0F88"/>
</linearGradient>
</defs>
</svg>
