<svg width="65" height="22" viewBox="0 0 65 22" fill="none" xmlns="http://www.w3.org/2000/svg">
<path d="M2.68878 17.7134H1.04924V18.6115H2.55695C2.66406 18.6115 2.75469 18.6362 2.80412 18.6856C2.86179 18.7351 2.88651 18.801 2.88651 18.8834C2.88651 18.9657 2.86179 19.0317 2.80412 19.0893C2.74645 19.1388 2.66406 19.1635 2.55695 19.1635H1.04924V20.2016H2.74645C2.86179 20.2016 2.94418 20.2263 3.00185 20.284C3.05952 20.3416 3.09248 20.4076 3.09248 20.4982C3.09248 20.5806 3.05952 20.6547 3.00185 20.7042C2.94418 20.7618 2.86179 20.7865 2.74645 20.7865H0.769118C0.612579 20.7865 0.497235 20.7536 0.431324 20.6794C0.365413 20.6053 0.324219 20.4899 0.324219 20.3334V17.5981C0.324219 17.491 0.340696 17.4086 0.373652 17.3345C0.406607 17.2685 0.456041 17.2191 0.521952 17.1862C0.587863 17.1532 0.670251 17.1367 0.777357 17.1367H2.69701C2.81236 17.1367 2.90299 17.1614 2.95242 17.2109C3.01009 17.2603 3.03481 17.3345 3.03481 17.4168C3.03481 17.4992 3.01009 17.5734 2.95242 17.6228C2.89475 17.6887 2.80412 17.7134 2.68878 17.7134Z" fill="white"/>
<path d="M4.22967 18.4723V18.5547C4.34501 18.3982 4.47684 18.2828 4.6169 18.2087C4.75696 18.1345 4.9135 18.1016 5.09475 18.1016C5.26777 18.1016 5.42431 18.1428 5.56437 18.2169C5.70443 18.2911 5.80329 18.4064 5.87744 18.5465C5.91864 18.6289 5.95159 18.7195 5.95983 18.8183C5.97631 18.9172 5.97631 19.0408 5.97631 19.1891V20.4496C5.97631 20.5815 5.94336 20.6886 5.88568 20.7545C5.82801 20.8204 5.74562 20.8616 5.64676 20.8616C5.54789 20.8616 5.4655 20.8286 5.40783 20.7545C5.34192 20.6803 5.3172 20.5815 5.3172 20.4496V19.3209C5.3172 19.0985 5.28425 18.9255 5.22657 18.8101C5.1689 18.6948 5.04532 18.6289 4.86406 18.6289C4.74872 18.6289 4.63337 18.6618 4.53451 18.736C4.43564 18.8101 4.36149 18.909 4.3203 19.0326C4.28734 19.1314 4.27086 19.3209 4.27086 19.601V20.4496C4.27086 20.5897 4.23791 20.6886 4.18024 20.7627C4.11433 20.8286 4.04018 20.8698 3.93307 20.8698C3.8342 20.8698 3.76005 20.8369 3.69414 20.7627C3.62823 20.6886 3.60352 20.5897 3.60352 20.4579V18.497C3.60352 18.3652 3.62823 18.2746 3.6859 18.2087C3.74358 18.1428 3.81773 18.1098 3.91659 18.1098C3.97426 18.1098 4.03194 18.1263 4.07313 18.151C4.12256 18.1757 4.15552 18.2251 4.18848 18.2746C4.21319 18.3158 4.22967 18.3899 4.22967 18.4723Z" fill="white"/>
<path d="M7.30456 17.4964V18.5015C7.38694 18.4026 7.46933 18.3202 7.55172 18.2626C7.63411 18.2049 7.72474 18.1637 7.8236 18.1307C7.92247 18.0978 8.02958 18.0896 8.13668 18.0896C8.3097 18.0896 8.458 18.1225 8.58982 18.1967C8.72164 18.2708 8.82051 18.3779 8.9029 18.518C8.95233 18.6004 8.98528 18.691 9.00176 18.7899C9.01824 18.8887 9.02648 19.0041 9.02648 19.1359V20.4376C9.02648 20.5695 8.99352 20.6766 8.93585 20.7425C8.87818 20.8084 8.79579 20.8496 8.68869 20.8496C8.46624 20.8496 8.35913 20.7095 8.35913 20.4376V19.2924C8.35913 19.0782 8.32618 18.9052 8.26026 18.7899C8.19435 18.6745 8.07901 18.6168 7.89775 18.6168C7.78241 18.6168 7.6753 18.6498 7.57644 18.7239C7.47757 18.7899 7.41166 18.8887 7.36223 19.0041C7.32927 19.1029 7.30456 19.2842 7.30456 19.5396V20.4376C7.30456 20.5695 7.2716 20.6766 7.21393 20.7425C7.15626 20.8166 7.07387 20.8496 6.96676 20.8496C6.74431 20.8496 6.63721 20.7095 6.63721 20.4376V17.4964C6.63721 17.3563 6.67016 17.2574 6.72783 17.1833C6.78551 17.1174 6.8679 17.0762 6.975 17.0762C7.08211 17.0762 7.16449 17.1091 7.22217 17.1833C7.27984 17.2574 7.30456 17.3563 7.30456 17.4964Z" fill="white"/>
<path d="M11.3646 20.465C11.1998 20.5968 11.0433 20.6875 10.895 20.7534C10.7467 20.8193 10.5737 20.8522 10.3842 20.8522C10.2112 20.8522 10.0629 20.8193 9.93105 20.7451C9.79923 20.6792 9.70036 20.5804 9.63445 20.465C9.5603 20.3497 9.52734 20.2179 9.52734 20.086C9.52734 19.8965 9.58502 19.74 9.70036 19.6082C9.8157 19.4764 9.97224 19.3857 10.1782 19.3445C10.2194 19.3363 10.3265 19.3116 10.4913 19.2786C10.6561 19.2457 10.8044 19.2127 10.9197 19.1798C11.0433 19.1468 11.1669 19.1138 11.3069 19.0726C11.2987 18.8914 11.2657 18.7596 11.1998 18.6772C11.1339 18.5948 11.0103 18.5536 10.8126 18.5536C10.6396 18.5536 10.516 18.5783 10.4254 18.6278C10.343 18.6772 10.2688 18.7513 10.2029 18.842C10.137 18.9326 10.0958 18.9985 10.0711 19.0315C10.0464 19.0644 9.98872 19.0809 9.90633 19.0809C9.83218 19.0809 9.76627 19.0562 9.7086 19.0067C9.65093 18.9573 9.62621 18.8914 9.62621 18.8172C9.62621 18.7019 9.66741 18.5783 9.74979 18.4712C9.83218 18.3559 9.964 18.2652 10.137 18.1911C10.31 18.1169 10.5325 18.084 10.7961 18.084C11.0927 18.084 11.3234 18.1169 11.4882 18.1911C11.653 18.2652 11.7766 18.3723 11.8425 18.5289C11.9084 18.6854 11.9496 18.8832 11.9496 19.1386C11.9496 19.2951 11.9496 19.4352 11.9496 19.5423C11.9496 19.6494 11.9496 19.773 11.9496 19.913C11.9496 20.0448 11.9743 20.1767 12.0155 20.3085C12.0567 20.4485 12.0814 20.5392 12.0814 20.5721C12.0814 20.638 12.0484 20.7039 11.9825 20.7616C11.9166 20.8193 11.8425 20.844 11.7601 20.844C11.6942 20.844 11.62 20.8111 11.5541 20.7451C11.5129 20.6875 11.447 20.5886 11.3646 20.465ZM11.3234 19.4846C11.2246 19.5175 11.0845 19.5587 10.895 19.5999C10.7055 19.6411 10.5819 19.6741 10.5078 19.6906C10.4336 19.707 10.3677 19.7482 10.3018 19.8059C10.2359 19.8636 10.2029 19.9377 10.2029 20.0366C10.2029 20.1355 10.2441 20.2261 10.3183 20.3002C10.3924 20.3744 10.4913 20.4073 10.6231 20.4073C10.7549 20.4073 10.8785 20.3744 10.9856 20.3167C11.101 20.259 11.1834 20.1849 11.2328 20.086C11.2905 19.9872 11.3234 19.8141 11.3234 19.5752V19.4846Z" fill="white"/>
<path d="M13.2682 18.4723V18.5547C13.3836 18.3982 13.5154 18.2828 13.6555 18.2087C13.7955 18.1345 13.9521 18.1016 14.1333 18.1016C14.3063 18.1016 14.4629 18.1428 14.6029 18.2169C14.743 18.2911 14.8419 18.4064 14.916 18.5465C14.9572 18.6289 14.9902 18.7195 14.9984 18.8183C15.0149 18.9172 15.0149 19.0408 15.0149 19.1891V20.4496C15.0149 20.5815 14.9819 20.6886 14.9243 20.7545C14.8666 20.8204 14.7842 20.8616 14.6853 20.8616C14.5865 20.8616 14.5041 20.8286 14.4464 20.7545C14.3805 20.6803 14.3558 20.5815 14.3558 20.4496V19.3209C14.3558 19.0985 14.3228 18.9255 14.2651 18.8101C14.2075 18.6948 14.0839 18.6289 13.9026 18.6289C13.7873 18.6289 13.6719 18.6618 13.5731 18.736C13.4742 18.8101 13.4001 18.909 13.3589 19.0326C13.3259 19.1314 13.3094 19.3209 13.3094 19.601V20.4496C13.3094 20.5897 13.2765 20.6886 13.2188 20.7627C13.1529 20.8286 13.0788 20.8698 12.9716 20.8698C12.8728 20.8698 12.7986 20.8369 12.7327 20.7627C12.6668 20.6886 12.6421 20.5897 12.6421 20.4579V18.497C12.6421 18.3652 12.6668 18.2746 12.7245 18.2087C12.7822 18.1428 12.8563 18.1098 12.9552 18.1098C13.0128 18.1098 13.0705 18.1263 13.1117 18.151C13.1611 18.1757 13.1941 18.2251 13.2271 18.2746C13.2518 18.3158 13.2682 18.3899 13.2682 18.4723Z" fill="white"/>
<path d="M18.0884 20.0119C18.0884 20.0943 18.0637 20.1849 18.0143 20.2838C17.9648 20.3826 17.8907 20.4733 17.7836 20.5556C17.6847 20.6463 17.5529 20.7122 17.3963 20.7616C17.2398 20.8111 17.0668 20.844 16.8691 20.844C16.4571 20.844 16.1358 20.7204 15.9051 20.4733C15.6744 20.2261 15.5591 19.9048 15.5591 19.4928C15.5591 19.2127 15.6085 18.9655 15.7156 18.7513C15.8227 18.5371 15.9793 18.3723 16.177 18.257C16.3747 18.1417 16.6137 18.084 16.8938 18.084C17.0668 18.084 17.2233 18.1087 17.3716 18.1581C17.5199 18.2076 17.6353 18.2735 17.7424 18.3559C17.8412 18.4383 17.9154 18.5206 17.9731 18.6195C18.0225 18.7101 18.0555 18.8008 18.0555 18.8749C18.0555 18.9573 18.0225 19.0232 17.9648 19.0809C17.9072 19.1386 17.833 19.1633 17.7506 19.1633C17.6929 19.1633 17.6518 19.1468 17.6106 19.1221C17.5776 19.0891 17.5364 19.0479 17.487 18.982C17.4046 18.8584 17.3222 18.7596 17.2316 18.7019C17.1409 18.636 17.0256 18.6113 16.8938 18.6113C16.696 18.6113 16.5395 18.6854 16.4159 18.842C16.2923 18.9985 16.2347 19.2127 16.2347 19.4846C16.2347 19.6082 16.2511 19.7318 16.2841 19.8389C16.3171 19.946 16.3583 20.0366 16.4159 20.1107C16.4736 20.1849 16.5477 20.2426 16.6301 20.2838C16.7125 20.325 16.8032 20.3414 16.902 20.3414C17.0338 20.3414 17.1492 20.3085 17.2481 20.2508C17.3469 20.1849 17.4293 20.0943 17.5035 19.9624C17.5446 19.8883 17.5858 19.8224 17.6353 19.7812C17.6847 19.74 17.7424 19.7153 17.8083 19.7153C17.8907 19.7153 17.9566 19.7482 18.0143 19.8059C18.0555 19.8718 18.0884 19.9377 18.0884 20.0119Z" fill="white"/>
<path d="M20.5354 19.6427H19.2254C19.2254 19.7992 19.2583 19.931 19.316 20.0464C19.3737 20.1617 19.4561 20.2523 19.5549 20.31C19.6538 20.3677 19.7609 20.4006 19.8845 20.4006C19.9669 20.4006 20.041 20.3924 20.107 20.3759C20.1729 20.3594 20.2388 20.3265 20.2964 20.2853C20.3624 20.2441 20.4118 20.2029 20.4695 20.1535C20.5189 20.104 20.593 20.0464 20.6754 19.964C20.7084 19.931 20.7578 19.9228 20.8237 19.9228C20.8896 19.9228 20.9473 19.9393 20.9885 19.9805C21.0297 20.0216 21.0544 20.0711 21.0544 20.1452C21.0544 20.2029 21.0297 20.2771 20.9803 20.3594C20.9308 20.4418 20.8649 20.5242 20.7661 20.5984C20.6672 20.6725 20.5519 20.7384 20.4036 20.7879C20.2553 20.8373 20.0905 20.862 19.9092 20.862C19.4808 20.862 19.143 20.7384 18.9041 20.4913C18.6651 20.2441 18.5498 19.9063 18.5498 19.4779C18.5498 19.2801 18.5828 19.0907 18.6404 18.9176C18.6981 18.7446 18.7887 18.5963 18.8958 18.4727C19.0112 18.3492 19.1512 18.2585 19.316 18.1926C19.4808 18.1267 19.6621 18.0938 19.868 18.0938C20.1317 18.0938 20.3541 18.1514 20.5436 18.2585C20.7331 18.3739 20.8732 18.5139 20.9638 18.6952C21.0544 18.8764 21.1039 19.0495 21.1039 19.239C21.1039 19.412 21.0544 19.5191 20.9556 19.5685C20.8402 19.6179 20.7084 19.6427 20.5354 19.6427ZM19.2254 19.2554H20.4365C20.42 19.0247 20.3624 18.8517 20.2553 18.7364C20.1481 18.621 20.0081 18.5634 19.8351 18.5634C19.6703 18.5634 19.5302 18.621 19.4231 18.7364C19.316 18.8517 19.2501 19.0247 19.2254 19.2554Z" fill="white"/>
<path d="M23.8958 17.5211L25.2964 19.6714V17.5046C25.2964 17.3645 25.3294 17.2574 25.3871 17.1915C25.4447 17.1174 25.5271 17.0844 25.626 17.0844C25.7331 17.0844 25.8155 17.1174 25.8732 17.1915C25.9308 17.2657 25.9638 17.3645 25.9638 17.5046V20.3717C25.9638 20.693 25.832 20.8496 25.5683 20.8496C25.5024 20.8496 25.4447 20.8413 25.3953 20.8249C25.3459 20.8084 25.2964 20.7754 25.247 20.7342C25.1976 20.693 25.1564 20.6436 25.1234 20.5859C25.0822 20.5283 25.041 20.4706 25.0081 20.4129L23.6487 18.2873V20.4212C23.6487 20.5612 23.6157 20.6683 23.5498 20.7342C23.4839 20.8084 23.4015 20.8413 23.3026 20.8413C23.2038 20.8413 23.1214 20.8084 23.0555 20.7342C22.9896 20.6601 22.9648 20.5612 22.9648 20.4212V17.6117C22.9648 17.4964 22.9813 17.3975 23.006 17.3316C23.039 17.2574 23.0884 17.1998 23.1626 17.1503C23.2367 17.1009 23.3109 17.0762 23.3933 17.0762C23.4592 17.0762 23.5168 17.0844 23.558 17.1091C23.6075 17.1338 23.6487 17.1586 23.6816 17.1998C23.7146 17.2327 23.7558 17.2821 23.7887 17.3398C23.8134 17.3975 23.8546 17.4634 23.8958 17.5211Z" fill="white"/>
<path d="M28.5754 19.6427H27.2654C27.2654 19.7992 27.2984 19.931 27.3561 20.0464C27.4137 20.1617 27.4961 20.2523 27.595 20.31C27.6939 20.3677 27.801 20.4006 27.9245 20.4006C28.0069 20.4006 28.0811 20.3924 28.147 20.3759C28.2129 20.3594 28.2788 20.3265 28.3365 20.2853C28.4024 20.2441 28.4518 20.2029 28.5095 20.1535C28.5589 20.104 28.6331 20.0464 28.7155 19.964C28.7484 19.931 28.7979 19.9228 28.8638 19.9228C28.9297 19.9228 28.9874 19.9393 29.0286 19.9805C29.0697 20.0216 29.0945 20.0711 29.0945 20.1452C29.0945 20.2029 29.0697 20.2771 29.0203 20.3594C28.9709 20.4418 28.905 20.5242 28.8061 20.5984C28.7072 20.6725 28.5919 20.7384 28.4436 20.7879C28.2953 20.8373 28.1305 20.862 27.9493 20.862C27.5208 20.862 27.183 20.7384 26.9441 20.4913C26.7052 20.2441 26.5898 19.9063 26.5898 19.4779C26.5898 19.2801 26.6228 19.0907 26.6805 18.9176C26.7381 18.7446 26.8288 18.5963 26.9359 18.4727C27.0512 18.3492 27.1913 18.2585 27.3561 18.1926C27.5208 18.1267 27.7021 18.0938 27.9081 18.0938C28.1717 18.0938 28.3942 18.1514 28.5837 18.2585C28.7731 18.3739 28.9132 18.5139 29.0038 18.6952C29.0945 18.8764 29.1439 19.0495 29.1439 19.239C29.1439 19.412 29.0945 19.5191 28.9956 19.5685C28.8803 19.6179 28.7484 19.6427 28.5754 19.6427ZM27.2654 19.2554H28.4765C28.4601 19.0247 28.4024 18.8517 28.2953 18.7364C28.1882 18.621 28.0481 18.5634 27.8751 18.5634C27.7103 18.5634 27.5703 18.621 27.4632 18.7364C27.3561 18.8517 27.2901 19.0247 27.2654 19.2554Z" fill="white"/>
<path d="M29.7207 18.1499H29.7949V17.7462C29.7949 17.6391 29.7949 17.5485 29.8031 17.4908C29.8114 17.4249 29.8278 17.3755 29.8526 17.3343C29.8773 17.2848 29.9185 17.2519 29.9679 17.2189C30.0173 17.186 30.075 17.1777 30.1327 17.1777C30.2151 17.1777 30.2974 17.2107 30.3634 17.2766C30.4128 17.3178 30.4375 17.3755 30.454 17.4331C30.4622 17.4991 30.4705 17.5814 30.4705 17.6968V18.1582H30.7176C30.8083 18.1582 30.8824 18.1829 30.9318 18.2241C30.9813 18.2735 31.006 18.3312 31.006 18.3971C31.006 18.4877 30.973 18.5536 30.8989 18.5866C30.8247 18.6195 30.7259 18.6443 30.5941 18.6443H30.4622V19.8883C30.4622 19.9954 30.4622 20.0778 30.4705 20.1355C30.4787 20.1932 30.4952 20.2426 30.5281 20.2756C30.5611 20.3085 30.6105 20.325 30.6847 20.325C30.7259 20.325 30.7753 20.3167 30.8412 20.3003C30.9071 20.2838 30.9566 20.2756 30.9978 20.2756C31.0554 20.2756 31.0966 20.3003 31.1461 20.3415C31.1872 20.3827 31.212 20.4403 31.212 20.5062C31.212 20.6133 31.1543 20.6957 31.0389 20.7534C30.9236 20.8111 30.7506 20.844 30.5281 20.844C30.3222 20.844 30.1574 20.8111 30.0503 20.7369C29.9432 20.6628 29.869 20.5639 29.8361 20.4403C29.8031 20.3167 29.7866 20.1437 29.7866 19.9378V18.636H29.696C29.5971 18.636 29.523 18.6113 29.4736 18.5701C29.4241 18.5207 29.3994 18.463 29.3994 18.3971C29.3994 18.3229 29.4241 18.2653 29.4818 18.2241C29.5477 18.1746 29.6219 18.1499 29.7207 18.1499Z" fill="white"/>
<path d="M31.8813 18.5148L32.3179 20.0307L32.7134 18.6219C32.7546 18.4736 32.7876 18.3747 32.804 18.3171C32.8205 18.2594 32.8617 18.2099 32.9194 18.1605C32.977 18.1111 33.0512 18.0864 33.1501 18.0864C33.2489 18.0864 33.3313 18.1111 33.3808 18.1605C33.4384 18.2099 33.4796 18.2594 33.4961 18.3171C33.5208 18.3747 33.5538 18.4736 33.595 18.6137L33.9904 20.0225L34.4271 18.5065C34.46 18.3994 34.4765 18.3171 34.5012 18.2676C34.5177 18.2182 34.5507 18.177 34.5919 18.1358C34.6331 18.0946 34.699 18.0781 34.7731 18.0781C34.8555 18.0781 34.9214 18.1028 34.9791 18.1605C35.0368 18.2182 35.0697 18.2841 35.0697 18.3582C35.0697 18.4242 35.045 18.5313 34.9956 18.6713L34.4518 20.2944C34.4024 20.4344 34.3694 20.5333 34.3447 20.591C34.32 20.6487 34.2788 20.7063 34.2211 20.7558C34.1634 20.8052 34.0893 20.8299 33.9904 20.8299C33.8916 20.8299 33.8092 20.8052 33.7515 20.7558C33.6938 20.7063 33.6526 20.6404 33.6197 20.5663C33.595 20.4921 33.562 20.3932 33.5291 20.2779L33.1501 18.9597L32.7793 20.2779C32.7299 20.4592 32.6804 20.5992 32.6228 20.6981C32.5651 20.7887 32.4662 20.8381 32.3179 20.8381C32.2438 20.8381 32.1861 20.8217 32.1284 20.797C32.079 20.764 32.0378 20.7228 31.9966 20.6734C31.9637 20.6157 31.9307 20.558 31.906 20.4839C31.8813 20.4097 31.8566 20.3521 31.8483 20.3109L31.3046 18.6878C31.2469 18.5313 31.2222 18.4324 31.2222 18.3747C31.2222 18.3006 31.2469 18.2347 31.3046 18.177C31.3622 18.1193 31.4281 18.0864 31.5188 18.0864C31.6259 18.0864 31.7083 18.1193 31.7412 18.1852C31.7906 18.2511 31.8318 18.3665 31.8813 18.5148Z" fill="white"/>
<path d="M37.9776 19.4681C37.9776 19.6741 37.9446 19.8553 37.8869 20.0284C37.821 20.2014 37.7386 20.3497 37.6151 20.465C37.4997 20.5886 37.3596 20.6792 37.1949 20.7451C37.0301 20.8111 36.8488 20.844 36.6429 20.844C36.4369 20.844 36.2556 20.8111 36.0991 20.7451C35.9343 20.6792 35.7943 20.5804 35.6789 20.4568C35.5636 20.3332 35.4729 20.1849 35.407 20.0201C35.3494 19.8553 35.3164 19.6658 35.3164 19.4599C35.3164 19.2539 35.3494 19.0644 35.407 18.8996C35.4729 18.7266 35.5553 18.5866 35.6707 18.463C35.786 18.3394 35.9261 18.2488 36.0909 18.1829C36.2556 18.1169 36.4369 18.084 36.6346 18.084C36.8406 18.084 37.0219 18.1169 37.1866 18.1829C37.3514 18.2488 37.4915 18.3476 37.6068 18.463C37.7222 18.5866 37.8128 18.7349 37.8787 18.8996C37.9446 19.0809 37.9776 19.2704 37.9776 19.4681ZM37.302 19.4681C37.302 19.188 37.2443 18.9738 37.1207 18.8255C36.9971 18.6689 36.8406 18.5948 36.6346 18.5948C36.5028 18.5948 36.3875 18.6277 36.2886 18.7019C36.1897 18.7678 36.1156 18.8749 36.0579 19.0067C36.0002 19.1386 35.9755 19.2951 35.9755 19.4764C35.9755 19.6576 36.0002 19.8059 36.0579 19.9377C36.1073 20.0696 36.1897 20.1684 36.2886 20.2426C36.3875 20.3167 36.5028 20.3497 36.6346 20.3497C36.8406 20.3497 36.9971 20.2755 37.1207 20.119C37.2443 19.9624 37.302 19.7482 37.302 19.4681Z" fill="white"/>
<path d="M39.1634 19.8729V20.4414C39.1634 20.5815 39.1305 20.6803 39.0646 20.7545C38.9987 20.8204 38.9163 20.8616 38.8256 20.8616C38.7268 20.8616 38.6526 20.8286 38.5867 20.7545C38.5208 20.6886 38.4961 20.5815 38.4961 20.4496V18.5629C38.4961 18.2581 38.6032 18.1016 38.8256 18.1016C38.9328 18.1016 39.0151 18.1345 39.0646 18.2087C39.114 18.2828 39.1387 18.3817 39.147 18.5217C39.2294 18.3817 39.3117 18.2746 39.3941 18.2087C39.4765 18.1428 39.5919 18.1016 39.7319 18.1016C39.872 18.1016 40.012 18.1345 40.1439 18.2087C40.2757 18.2828 40.3416 18.3734 40.3416 18.4888C40.3416 18.5712 40.3169 18.6371 40.2592 18.6948C40.2015 18.7524 40.1439 18.7772 40.078 18.7772C40.0532 18.7772 39.9956 18.7607 39.8967 18.7277C39.8061 18.6948 39.7237 18.6783 39.6495 18.6783C39.5507 18.6783 39.4683 18.703 39.4106 18.7524C39.3447 18.8019 39.3035 18.8843 39.2623 18.9831C39.2294 19.082 39.2046 19.2056 39.1882 19.3539C39.1717 19.4939 39.1634 19.6669 39.1634 19.8729Z" fill="white"/>
<path d="M42.2359 20.541L41.6427 19.5605L41.2802 19.9066V20.4421C41.2802 20.5739 41.2472 20.6728 41.1813 20.7469C41.1154 20.8211 41.033 20.854 40.9506 20.854C40.8518 20.854 40.7694 20.8211 40.7117 20.7469C40.654 20.681 40.6211 20.5739 40.6211 20.4421V17.5502C40.6211 17.4019 40.6458 17.2866 40.7035 17.2042C40.7612 17.1218 40.8435 17.0889 40.9506 17.0889C41.0495 17.0889 41.1319 17.1218 41.1978 17.196C41.2555 17.2701 41.2884 17.369 41.2884 17.509V19.1568L42.0382 18.3577C42.1288 18.2588 42.203 18.1929 42.2524 18.1517C42.3018 18.1187 42.3595 18.094 42.4336 18.094C42.516 18.094 42.5902 18.1187 42.6396 18.1764C42.6973 18.2341 42.722 18.3 42.722 18.3824C42.722 18.4812 42.6314 18.6131 42.4501 18.7778L42.0959 19.1074L42.7797 20.2032C42.8291 20.2855 42.8703 20.3432 42.8868 20.3844C42.9115 20.4256 42.9197 20.4668 42.9197 20.508C42.9197 20.6151 42.8868 20.6975 42.8291 20.7634C42.7714 20.8293 42.6973 20.854 42.5984 20.854C42.516 20.854 42.4501 20.8293 42.4089 20.7881C42.3677 20.7387 42.3101 20.6563 42.2359 20.541Z" fill="white"/>
<path d="M47.4761 19.6989C47.4761 19.9214 47.4185 20.1191 47.3114 20.2921C47.196 20.4652 47.0395 20.6052 46.817 20.7041C46.6028 20.8029 46.3474 20.8524 46.0508 20.8524C45.6965 20.8524 45.4082 20.7865 45.1775 20.6464C45.0127 20.5475 44.8809 20.4157 44.782 20.2509C44.6832 20.0862 44.6255 19.9296 44.6255 19.7731C44.6255 19.6825 44.6584 19.6083 44.7161 19.5424C44.7738 19.4765 44.8562 19.4435 44.9468 19.4435C45.021 19.4435 45.0869 19.4683 45.1445 19.5177C45.194 19.5671 45.2434 19.6413 45.2846 19.7401C45.334 19.8555 45.3835 19.9543 45.4329 20.0285C45.4823 20.1026 45.5647 20.1686 45.6553 20.218C45.7542 20.2674 45.8778 20.2921 46.0343 20.2921C46.2485 20.2921 46.4216 20.2427 46.5616 20.1356C46.6934 20.0367 46.7676 19.9049 46.7676 19.7566C46.7676 19.633 46.7346 19.5342 46.6605 19.46C46.5863 19.3859 46.4957 19.3282 46.3804 19.287C46.265 19.2458 46.1085 19.2046 45.919 19.1634C45.6636 19.1057 45.4494 19.0316 45.2681 18.9492C45.0951 18.8668 44.955 18.7515 44.8562 18.6114C44.7573 18.4713 44.6996 18.2901 44.6996 18.0841C44.6996 17.8864 44.7573 17.7051 44.8644 17.5486C44.9715 17.3921 45.1281 17.2767 45.334 17.1861C45.54 17.1037 45.7789 17.0625 46.0508 17.0625C46.2733 17.0625 46.4628 17.0872 46.6193 17.1449C46.7841 17.2026 46.9159 17.2767 47.023 17.3673C47.1301 17.458 47.2043 17.5568 47.2537 17.6557C47.3031 17.7546 47.3278 17.8534 47.3278 17.9523C47.3278 18.0429 47.2949 18.1171 47.2372 18.1912C47.1795 18.2654 47.0971 18.2983 47.0065 18.2983C46.9241 18.2983 46.8582 18.2736 46.817 18.2324C46.7758 18.1912 46.7264 18.1171 46.677 18.0264C46.6111 17.8864 46.5369 17.7793 46.438 17.7051C46.3474 17.631 46.1991 17.5898 46.0014 17.5898C45.8119 17.5898 45.6636 17.631 45.5482 17.7134C45.4329 17.7958 45.3752 17.8946 45.3752 18.0182C45.3752 18.0924 45.3917 18.15 45.4329 18.2077C45.4741 18.2571 45.5235 18.3066 45.5977 18.3478C45.6636 18.389 45.7377 18.4137 45.8036 18.4384C45.8696 18.4631 45.9931 18.4878 46.1497 18.529C46.3557 18.5785 46.5369 18.6279 46.7017 18.6856C46.8665 18.7432 47.0065 18.8174 47.1219 18.8998C47.2372 18.9822 47.3278 19.0893 47.3937 19.2128C47.4432 19.3529 47.4761 19.5094 47.4761 19.6989Z" fill="white"/>
<path d="M49.907 19.6427H48.597C48.597 19.7992 48.6299 19.931 48.6876 20.0464C48.7453 20.1617 48.8277 20.2523 48.9265 20.31C49.0254 20.3677 49.1325 20.4006 49.2561 20.4006C49.3385 20.4006 49.4126 20.3924 49.4785 20.3759C49.5444 20.3594 49.6104 20.3265 49.668 20.2853C49.7339 20.2441 49.7834 20.2029 49.841 20.1535C49.8905 20.104 49.9646 20.0464 50.047 19.964C50.08 19.931 50.1294 19.9228 50.1953 19.9228C50.2612 19.9228 50.3189 19.9393 50.3601 19.9805C50.4013 20.0216 50.426 20.0711 50.426 20.1452C50.426 20.2029 50.4013 20.2771 50.3519 20.3594C50.3024 20.4418 50.2365 20.5242 50.1376 20.5984C50.0388 20.6725 49.9234 20.7384 49.7751 20.7879C49.6268 20.8373 49.4621 20.862 49.2808 20.862C48.8524 20.862 48.5146 20.7384 48.2757 20.4913C48.0367 20.2441 47.9214 19.9063 47.9214 19.4779C47.9214 19.2801 47.9543 19.0907 48.012 18.9176C48.0697 18.7446 48.1603 18.5963 48.2674 18.4727C48.3828 18.3492 48.5228 18.2585 48.6876 18.1926C48.8524 18.1267 49.0336 18.0938 49.2396 18.0938C49.5033 18.0938 49.7257 18.1514 49.9152 18.2585C50.1047 18.3739 50.2447 18.5139 50.3354 18.6952C50.426 18.8764 50.4754 19.0495 50.4754 19.239C50.4754 19.412 50.426 19.5191 50.3271 19.5685C50.22 19.6179 50.08 19.6427 49.907 19.6427ZM48.6052 19.2554H49.8163C49.7998 19.0247 49.7422 18.8517 49.6351 18.7364C49.528 18.621 49.3879 18.5634 49.2149 18.5634C49.0501 18.5634 48.91 18.621 48.8029 18.7364C48.6876 18.8517 48.6217 19.0247 48.6052 19.2554Z" fill="white"/>
<path d="M53.418 20.0119C53.418 20.0943 53.3933 20.1849 53.3439 20.2838C53.2944 20.3826 53.2203 20.4733 53.1132 20.5556C53.0143 20.6463 52.8825 20.7122 52.7259 20.7616C52.5694 20.8111 52.3964 20.844 52.1986 20.844C51.7867 20.844 51.4654 20.7204 51.2347 20.4733C51.004 20.2261 50.8887 19.9048 50.8887 19.4928C50.8887 19.2127 50.9381 18.9655 51.0452 18.7513C51.1523 18.5371 51.3006 18.3723 51.5066 18.257C51.7043 18.1417 51.9432 18.084 52.2234 18.084C52.3964 18.084 52.5529 18.1087 52.7012 18.1581C52.8495 18.2076 52.9649 18.2735 53.072 18.3559C53.1708 18.4383 53.245 18.5206 53.3027 18.6195C53.3521 18.7101 53.385 18.8008 53.385 18.8749C53.385 18.9573 53.3521 19.0232 53.2944 19.0809C53.2367 19.1386 53.1626 19.1633 53.0802 19.1633C53.0225 19.1633 52.9813 19.1468 52.9401 19.1221C52.9072 19.0891 52.866 19.0479 52.8166 18.982C52.7342 18.8584 52.6518 18.7596 52.5612 18.7019C52.4705 18.636 52.3552 18.6113 52.2234 18.6113C52.0256 18.6113 51.8691 18.6854 51.7455 18.842C51.6219 18.9985 51.5643 19.2127 51.5643 19.4846C51.5643 19.6082 51.5807 19.7318 51.6137 19.8389C51.6466 19.946 51.6878 20.0366 51.7455 20.1107C51.8032 20.1849 51.8773 20.2426 51.9597 20.2838C52.0421 20.325 52.1327 20.3414 52.2316 20.3414C52.3634 20.3414 52.4788 20.3085 52.5776 20.2508C52.6765 20.1849 52.7589 20.0943 52.833 19.9624C52.8742 19.8883 52.9154 19.8224 52.9649 19.7812C53.0143 19.74 53.072 19.7153 53.1379 19.7153C53.2203 19.7153 53.2862 19.7482 53.3439 19.8059C53.3933 19.8718 53.418 19.9377 53.418 20.0119Z" fill="white"/>
<path d="M55.7402 20.4665V20.3759C55.6578 20.4748 55.5755 20.5654 55.4848 20.6313C55.3942 20.6972 55.3036 20.7549 55.1965 20.7879C55.0894 20.8208 54.974 20.8373 54.8422 20.8373C54.6774 20.8373 54.5374 20.8043 54.4055 20.7384C54.2737 20.6725 54.1748 20.5737 54.1089 20.4583C54.0265 20.31 53.9854 20.104 53.9854 19.8404V18.4975C53.9854 18.3656 54.0183 18.2585 54.076 18.1926C54.1336 18.1267 54.216 18.0938 54.3149 18.0938C54.4138 18.0938 54.4962 18.1267 54.5621 18.1926C54.628 18.2585 54.6527 18.3656 54.6527 18.4975V19.585C54.6527 19.7415 54.6692 19.8733 54.6939 19.9805C54.7186 20.0876 54.768 20.1699 54.834 20.2276C54.8999 20.2853 54.9905 20.3182 55.1058 20.3182C55.2212 20.3182 55.3283 20.2853 55.4272 20.2194C55.526 20.1535 55.6002 20.0628 55.6414 19.9557C55.6826 19.8569 55.699 19.6509 55.699 19.3213V18.4975C55.699 18.3656 55.732 18.2585 55.7897 18.1926C55.8556 18.1267 55.9297 18.0938 56.0286 18.0938C56.1275 18.0938 56.2098 18.1267 56.2675 18.1926C56.3252 18.2585 56.3581 18.3574 56.3581 18.4975V20.4665C56.3581 20.5984 56.3252 20.689 56.2675 20.7549C56.2098 20.8208 56.1357 20.8538 56.0451 20.8538C55.9544 20.8538 55.8803 20.8208 55.8226 20.7549C55.7649 20.689 55.7402 20.5901 55.7402 20.4665Z" fill="white"/>
<path d="M57.6918 19.8729V20.4414C57.6918 20.5815 57.6588 20.6803 57.5929 20.7545C57.527 20.8204 57.4446 20.8616 57.354 20.8616C57.2551 20.8616 57.181 20.8286 57.115 20.7545C57.0491 20.6886 57.0244 20.5815 57.0244 20.4496V18.5629C57.0244 18.2581 57.1315 18.1016 57.354 18.1016C57.4611 18.1016 57.5435 18.1345 57.5929 18.2087C57.6423 18.2828 57.667 18.3817 57.6753 18.5217C57.7577 18.3817 57.8401 18.2746 57.9224 18.2087C58.0048 18.1345 58.1202 18.1016 58.2602 18.1016C58.4003 18.1016 58.5404 18.1345 58.6722 18.2087C58.804 18.2828 58.8699 18.3734 58.8699 18.4888C58.8699 18.5712 58.8452 18.6371 58.7875 18.6948C58.7299 18.7524 58.6722 18.7772 58.6063 18.7772C58.5816 18.7772 58.5239 18.7607 58.425 18.7277C58.3344 18.6948 58.252 18.6783 58.1779 18.6783C58.079 18.6783 57.9966 18.703 57.9389 18.7524C57.873 18.8019 57.8318 18.8843 57.7906 18.9831C57.7577 19.082 57.733 19.2056 57.7165 19.3539C57.7 19.4939 57.6918 19.6669 57.6918 19.8729Z" fill="white"/>
<path d="M59.5619 17.7767C59.4713 17.7767 59.3889 17.7438 59.323 17.6861C59.2571 17.6284 59.2241 17.546 59.2241 17.4389C59.2241 17.3401 59.2571 17.2659 59.323 17.2C59.3889 17.1341 59.4713 17.1094 59.5619 17.1094C59.6443 17.1094 59.7267 17.1341 59.7926 17.1918C59.8585 17.2494 59.8915 17.3318 59.8915 17.4389C59.8915 17.546 59.8585 17.6284 59.7926 17.6861C59.7267 17.7438 59.6525 17.7767 59.5619 17.7767ZM59.8915 18.477V20.4379C59.8915 20.5697 59.8585 20.6768 59.7926 20.7427C59.7267 20.8086 59.6443 20.8498 59.5537 20.8498C59.4548 20.8498 59.3724 20.8169 59.3148 20.7427C59.2571 20.6686 59.2241 20.5697 59.2241 20.4379V18.4935C59.2241 18.3617 59.2571 18.2546 59.3148 18.1887C59.3724 18.1228 59.4548 18.0898 59.5537 18.0898C59.6525 18.0898 59.7349 18.1228 59.7926 18.1887C59.8585 18.2628 59.8915 18.3534 59.8915 18.477Z" fill="white"/>
<path d="M60.6158 18.1499H60.69V17.7462C60.69 17.6391 60.69 17.5485 60.6982 17.4908C60.7064 17.4249 60.7229 17.3755 60.7476 17.3343C60.7723 17.2848 60.8135 17.2519 60.863 17.2189C60.9124 17.186 60.9701 17.1777 61.0278 17.1777C61.1101 17.1777 61.1925 17.2107 61.2584 17.2766C61.3079 17.3178 61.3326 17.3755 61.3491 17.4331C61.3573 17.4991 61.3655 17.5814 61.3655 17.6968V18.1582H61.6127C61.7033 18.1582 61.7775 18.1829 61.8269 18.2241C61.8764 18.2735 61.9011 18.3312 61.9011 18.3971C61.9011 18.4877 61.8681 18.5536 61.794 18.5866C61.7198 18.6195 61.621 18.6443 61.4891 18.6443H61.3573V19.8883C61.3573 19.9954 61.3573 20.0778 61.3655 20.1355C61.3738 20.1932 61.3903 20.2426 61.4232 20.2756C61.4562 20.3085 61.5056 20.325 61.5798 20.325C61.621 20.325 61.6704 20.3167 61.7363 20.3003C61.8022 20.2838 61.8516 20.2756 61.8928 20.2756C61.9505 20.2756 61.9917 20.3003 62.0411 20.3415C62.0823 20.3827 62.107 20.4403 62.107 20.5062C62.107 20.6133 62.0494 20.6957 61.934 20.7534C61.8187 20.8111 61.6457 20.844 61.4315 20.844C61.2255 20.844 61.0607 20.8111 60.9536 20.7369C60.8465 20.6628 60.7723 20.5639 60.7394 20.4403C60.7064 20.3167 60.69 20.1437 60.69 19.9378V18.636H60.5993C60.5005 18.636 60.4263 18.6113 60.3769 18.5701C60.3274 18.5207 60.3027 18.463 60.3027 18.3971C60.3027 18.3229 60.3275 18.2653 60.3851 18.2241C60.4428 18.1746 60.5169 18.1499 60.6158 18.1499Z" fill="white"/>
<path d="M62.973 20.9346L63.0307 20.7863L62.2068 18.6854C62.1574 18.5618 62.1327 18.4795 62.1327 18.4218C62.1327 18.3641 62.1492 18.3064 62.1739 18.257C62.2068 18.2076 62.2398 18.1664 62.2975 18.1417C62.3469 18.1087 62.4046 18.1005 62.454 18.1005C62.5529 18.1005 62.627 18.1334 62.6682 18.1911C62.7176 18.257 62.7588 18.3394 62.8 18.4547L63.3685 20.1272L63.904 18.5701C63.9452 18.4465 63.9864 18.3476 64.0194 18.2735C64.0523 18.1993 64.0935 18.1581 64.1265 18.1252C64.1594 18.0922 64.2171 18.084 64.2913 18.084C64.3407 18.084 64.3901 18.1005 64.4396 18.1252C64.489 18.1499 64.522 18.1911 64.5467 18.2323C64.5714 18.2817 64.5879 18.3312 64.5879 18.3806C64.5796 18.4135 64.5714 18.4547 64.5549 18.5124C64.5384 18.5701 64.522 18.6278 64.4972 18.6854L63.6239 21.0005C63.5498 21.2065 63.4756 21.3631 63.4015 21.4784C63.3273 21.5937 63.2367 21.6844 63.1131 21.742C62.9978 21.808 62.833 21.8327 62.6353 21.8327C62.4375 21.8327 62.2892 21.808 62.1986 21.7668C62.0997 21.7256 62.0503 21.6432 62.0503 21.5278C62.0503 21.4537 62.075 21.3878 62.1162 21.3466C62.1656 21.3054 62.2315 21.2807 62.3222 21.2807C62.3551 21.2807 62.3963 21.2889 62.4293 21.2971C62.4705 21.3054 62.5117 21.3136 62.5364 21.3136C62.6105 21.3136 62.6764 21.3054 62.7176 21.2807C62.7588 21.256 62.8 21.2148 62.833 21.1571C62.8907 21.1324 62.9318 21.05 62.973 20.9346Z" fill="white"/>
<path d="M53.5409 13.4292C53.3679 13.2974 53.3267 13.1244 53.3267 12.9102C53.3349 9.95241 53.3349 6.99466 53.3349 4.02866C53.3349 3.39427 53.4997 3.22949 54.1258 3.22949C54.34 3.22949 54.5543 3.22949 54.7685 3.22949C55.3534 3.23773 55.65 3.4437 55.8725 3.98747C56.8117 6.33555 57.7427 8.67539 58.6819 11.0235C58.7149 11.1141 58.7561 11.2047 58.8137 11.353C58.8714 11.2294 58.9209 11.1553 58.9538 11.0729C59.9178 8.7413 60.8899 6.4097 61.8539 4.0781C62.1505 3.36131 62.3482 3.22949 63.1227 3.22949C63.3287 3.22949 63.5264 3.22949 63.7324 3.22949C64.0125 3.22949 64.2102 3.34484 64.2844 3.62496C64.2844 6.82988 64.2844 10.0266 64.2844 13.2315C64.2432 13.3633 64.0701 13.3139 64.0042 13.4292C63.7324 13.4292 63.4605 13.4292 63.1968 13.4292C63.032 13.2892 62.9909 13.1244 62.9909 12.9102C62.9991 10.2243 62.9991 7.53842 62.9991 4.85255C62.9991 4.74544 62.9991 4.63834 62.9991 4.53123C62.9085 4.6301 62.8508 4.73721 62.8096 4.84431C61.7221 7.53842 60.6263 10.2243 59.547 12.9184C59.4564 13.1491 59.341 13.3551 59.0856 13.4375C58.8385 13.4375 58.5913 13.4375 58.3441 13.4375C58.1217 13.2974 58.0311 13.0832 57.9404 12.8525C56.9106 10.1749 55.8725 7.50547 54.8344 4.84431C54.8014 4.76192 54.8014 4.66306 54.6778 4.60538C54.6778 4.75368 54.6778 4.87727 54.6778 5.00085C54.6778 7.61257 54.6778 10.2243 54.6861 12.836C54.6861 13.1161 54.6531 13.3386 54.3565 13.4375C54.0846 13.4292 53.8128 13.4292 53.5409 13.4292Z" fill="white"/>
<path d="M39.8961 13.4288C39.7148 13.297 39.6489 13.1322 39.6489 12.8933C39.6572 9.96022 39.6572 7.01895 39.6572 4.08591C39.6572 3.37737 39.8055 3.2373 40.5058 3.2373C40.7117 3.2373 40.9095 3.2373 41.1154 3.2373C41.6839 3.24554 41.9805 3.45152 42.1947 3.9788C43.0021 6.00557 43.8178 8.04057 44.6252 10.0673C44.79 10.4793 44.963 10.8995 45.1525 11.3691C45.3749 10.8335 45.5809 10.3392 45.7869 9.84488C46.5943 7.90874 47.4017 5.97261 48.2091 4.04471C48.4892 3.36913 48.6952 3.2373 49.4367 3.2373C49.6427 3.2373 49.8404 3.2373 50.0464 3.2373C50.4501 3.24554 50.6396 3.43504 50.6561 3.83874C50.6561 3.92113 50.6561 3.99528 50.6561 4.07767C50.6561 7.01071 50.6561 9.95199 50.6643 12.885C50.6643 13.1404 50.6396 13.3382 50.3759 13.437C50.1041 13.437 49.8322 13.437 49.5685 13.437C49.3873 13.3052 49.3296 13.1322 49.3378 12.9015C49.3461 10.1168 49.3461 7.33202 49.3461 4.53905C49.2225 4.59672 49.2225 4.71206 49.1895 4.79445C48.0855 7.4968 46.9898 10.1909 45.9022 12.9015C45.8116 13.1322 45.7127 13.3464 45.4573 13.437C45.2102 13.437 44.963 13.437 44.7158 13.437C44.5675 13.3299 44.4439 13.2063 44.3698 13.0168C43.3152 10.2815 42.2442 7.54623 41.1731 4.81093C41.1484 4.73678 41.1731 4.62144 41.0413 4.59672C41.0331 4.62967 41.0331 4.66263 41.0331 4.68735C41.0331 7.40617 41.0331 10.125 41.0413 12.8438C41.0413 13.1075 41.0083 13.3134 40.7365 13.4288C40.4399 13.4288 40.168 13.4288 39.8961 13.4288Z" fill="white"/>
<path d="M10.7231 13.4295C10.5665 13.2729 10.5171 13.0917 10.5171 12.8692C10.5253 9.9197 10.5253 6.97018 10.5253 4.02066C10.5253 3.36155 10.6572 3.22973 11.3163 3.23797C12.3049 3.25445 13.2936 3.1803 14.2823 3.29564C16.1607 3.51809 17.2235 5.33888 16.4656 7.04433C16.1937 7.65401 15.79 8.00004 14.8013 8.46965C15.5346 8.86512 15.8724 9.54895 16.169 10.2575C16.5232 11.1061 16.861 11.9629 17.2071 12.8115C17.3142 13.0834 17.3224 13.3059 17.0011 13.4212C16.688 13.4212 16.3667 13.4212 16.0536 13.4212C15.8806 13.2564 15.7817 13.0505 15.6993 12.8363C15.4192 12.103 15.1391 11.3697 14.8343 10.6447C14.2081 9.137 13.7962 8.87336 12.1566 8.88984C11.9342 8.88984 11.8765 8.94751 11.8765 9.16996C11.8847 10.4058 11.8765 11.6416 11.8847 12.8775C11.8847 13.1329 11.8435 13.3224 11.5881 13.4212C11.308 13.4295 11.0114 13.4295 10.7231 13.4295ZM11.8847 6.04743C11.8847 6.54176 11.8847 7.03609 11.8847 7.53042C11.8847 7.66224 11.8765 7.76935 12.066 7.76111C12.651 7.73639 13.2359 7.79407 13.8126 7.6952C14.6942 7.53866 15.2215 6.92899 15.2215 6.03919C15.2215 5.10819 14.7354 4.58091 13.7962 4.43261C13.2277 4.34198 12.651 4.40789 12.0825 4.37494C11.9095 4.3667 11.8847 4.44909 11.8847 4.59738C11.893 5.07524 11.8847 5.56133 11.8847 6.04743Z" fill="white"/>
<path d="M4.03435 13.4271C3.80366 13.2706 3.7048 13.0399 3.61417 12.7845C2.58431 9.8185 1.53797 6.86075 0.499875 3.89476C0.45868 3.77941 0.417486 3.66407 0.39277 3.54048C0.343336 3.31804 0.450442 3.18621 0.664652 3.16974C0.936535 3.15326 1.20842 3.15326 1.47206 3.16974C1.71099 3.17797 1.80162 3.36747 1.86753 3.5652C2.5184 5.4931 3.17751 7.42923 3.82838 9.35713C4.1085 10.1728 4.38038 10.9884 4.66874 11.8206C4.80057 11.7299 4.79233 11.5981 4.83352 11.491C5.70684 8.85456 6.5884 6.21812 7.45348 3.57344C7.56059 3.25212 7.7336 3.15326 8.03844 3.15326C8.99415 3.13678 9.01887 3.1615 8.69755 4.06777C7.68417 6.99257 6.66255 9.90913 5.64917 12.8339C5.55854 13.0976 5.4432 13.32 5.17955 13.4271C4.80057 13.4271 4.41334 13.4271 4.03435 13.4271Z" fill="white"/>
<path d="M21.7296 13.4278C21.7131 13.3537 21.6554 13.3537 21.606 13.3454C20.0406 12.9252 19.1261 11.8707 18.7389 10.3382C18.3517 8.80581 18.3846 7.28161 18.9696 5.80686C19.7111 3.92839 21.433 2.8903 23.435 3.11274C24.1353 3.19513 24.8109 3.41758 25.4041 3.846C25.7831 4.12613 25.9397 4.67813 25.7666 5.10655C25.6678 5.34548 25.5112 5.33724 25.3382 5.21366C25.0499 5.01592 24.7697 4.80995 24.4567 4.66165C22.6112 3.78833 20.8398 4.56279 20.2466 6.5154C19.8676 7.78419 19.8758 9.06945 20.2878 10.33C20.8727 12.1014 22.5123 12.5627 24.0365 12.1178C24.5226 11.9695 24.9428 11.6894 25.3629 11.4093C25.6843 11.1868 25.7996 11.261 25.8573 11.6565C25.9397 12.2249 25.7419 12.6286 25.2146 12.8923C24.8192 13.0818 24.4155 13.2548 23.9953 13.3619C23.9376 13.3784 23.8552 13.3537 23.8305 13.4443C23.122 13.4278 22.4299 13.4278 21.7296 13.4278Z" fill="white"/>
<path d="M33.7505 7.85016V0.970703L31.9462 0.970703V7.85016H33.7505Z" fill="#50B848"/>
<path d="M34.7881 2.25684V4.25888C35.9992 4.94271 36.8231 6.23621 36.8231 7.72745C36.8231 9.91899 35.0435 11.6986 32.8519 11.6986C30.6604 11.6986 28.8808 9.91899 28.8808 7.72745C28.8808 6.23621 29.6964 4.94271 30.9158 4.25888V2.25684C28.6666 3.05601 27.0518 5.20635 27.0518 7.72745C27.0518 10.9324 29.647 13.5276 32.8519 13.5276C36.0568 13.5276 38.6521 10.9324 38.6521 7.72745C38.6521 5.20635 37.0373 3.05601 34.7881 2.25684Z" fill="#50B848"/>
<path d="M64.4241 14.7891H0.259766V16.1567H64.4241V14.7891Z" fill="#50B848"/>
</svg>
