<svg width="87" height="29" viewBox="0 0 87 29" fill="none" xmlns="http://www.w3.org/2000/svg">
<path d="M14.7202 28.4394C22.4724 28.4394 28.7567 22.155 28.7567 14.4028C28.7567 6.6506 22.4724 0.366211 14.7202 0.366211C6.96798 0.366211 0.683594 6.6506 0.683594 14.4028C0.683594 22.155 6.96798 28.4394 14.7202 28.4394Z" fill="white"/>
<path fill-rule="evenodd" clip-rule="evenodd" d="M4.66468 21.7792C5.57869 23.2808 8.84301 23.8031 10.9975 23.9989C14.9799 24.4559 19.2888 24.1948 22.4226 22.8891C23.9895 22.2362 25.2952 20.9305 25.2952 20.9305C25.7522 20.4735 26.4703 19.2983 26.9273 17.7314C26.7315 17.7314 26.4051 18.3843 25.3605 18.9719C24.9035 19.233 24.3812 19.4289 23.8589 19.6248C20.007 20.9305 14.1312 20.8652 9.62645 20.3429C8.71244 20.2123 6.68856 19.8206 5.83984 19.7553C5.18697 19.69 4.66468 19.8859 4.46882 20.3429C4.27296 20.7346 4.46882 21.4528 4.66468 21.7792Z" fill="url(#paint0_radial_1_107)"/>
<path fill-rule="evenodd" clip-rule="evenodd" d="M26.4711 10.3523C26.1447 9.82999 25.4918 9.11184 24.839 8.78541C19.3549 5.58637 12.0428 7.02267 12.0428 7.02267C11.3247 7.21853 10.7371 7.74083 10.6065 8.39369C10.2801 9.89528 11.2594 10.6787 12.4346 10.744C13.0221 10.8093 13.675 10.744 14.3279 10.744C14.9807 10.744 15.6336 10.744 16.3517 10.744C20.2689 10.8746 25.296 11.0704 27.3199 13.0943C27.1893 12.115 26.9934 11.0704 26.4711 10.3523Z" fill="url(#paint1_radial_1_107)"/>
<path fill-rule="evenodd" clip-rule="evenodd" d="M25.23 7.48197C25.23 7.41668 25.23 7.41668 25.23 7.35139C23.9243 5.3928 22.0962 3.82593 19.9418 2.84663C19.4848 2.65077 19.0278 2.45491 18.6361 2.32434C18.3749 2.25905 18.1138 2.12848 17.7873 2.0632C16.1552 1.73676 14.9147 1.67148 12.8256 1.93262C12.238 1.99791 11.4546 2.25905 10.9323 2.45491C10.41 2.58549 9.95297 2.78135 9.69182 3.23835C9.62654 3.43421 9.49596 3.76064 9.56125 3.9565C9.62654 4.28293 10.1488 4.54408 10.6711 4.54408C11.324 4.54408 11.9116 4.41351 12.5644 4.34822C17.0039 4.02179 21.5087 4.80522 24.1854 6.56796C24.3813 6.76382 24.9688 7.22082 25.23 7.48197Z" fill="url(#paint2_radial_1_107)"/>
<path fill-rule="evenodd" clip-rule="evenodd" d="M14.0007 25.4367C13.3478 25.4367 12.238 25.5673 12.238 26.0895C12.1727 26.8077 13.152 26.873 13.9354 26.9383C14.2618 26.9383 14.523 27.0036 14.8494 27.0036C18.3096 27.0036 21.3781 25.5673 23.6631 23.2822C21.1169 24.8491 17.8526 25.4367 14.0007 25.4367Z" fill="url(#paint3_radial_1_107)"/>
<path fill-rule="evenodd" clip-rule="evenodd" d="M25.359 13.8789C19.3526 12.312 14.7173 13.0302 13.5421 14.7276C13.1504 15.3152 13.2157 16.5556 13.4768 17.0779C13.8685 17.9919 14.7826 18.449 16.2841 18.6448C21.3112 19.1018 25.1631 17.5349 25.2937 17.5349C26.0118 17.2738 26.9258 16.6209 27.187 16.1639C27.3828 15.7722 27.5134 15.2499 27.187 14.9235C26.6647 14.2053 25.359 13.8789 25.359 13.8789Z" fill="url(#paint4_radial_1_107)"/>
<path fill-rule="evenodd" clip-rule="evenodd" d="M4.07812 14.8567C10.0845 16.4236 14.7198 15.7054 15.895 14.008C16.2867 13.4204 16.2214 12.1799 15.9602 11.6576C15.5685 10.7436 14.6545 10.2866 13.1529 10.1561C8.12588 9.69905 4.27398 11.2659 4.14341 11.2659C3.49054 11.4618 2.51125 12.1146 2.2501 12.5717C2.05424 12.9634 1.92367 13.4857 2.2501 13.8121C2.77239 14.5302 4.07812 14.8567 4.07812 14.8567Z" fill="url(#paint5_radial_1_107)"/>
<path fill-rule="evenodd" clip-rule="evenodd" d="M20.1372 8.39411C21.0512 8.52468 23.1404 8.9164 23.9891 8.98169C24.642 9.04698 25.1643 8.85112 25.3601 8.39411C25.4254 8.13297 25.3601 7.67596 25.2949 7.34953C25.099 7.0231 24.8379 6.69666 24.5767 6.37023C23.271 5.32565 20.5942 4.93393 18.7009 4.73807C14.5879 4.28107 10.279 4.6075 7.07996 5.84794C5.51308 6.50081 4.20736 7.80653 4.20736 7.80653C3.75035 8.26354 2.96691 9.43869 2.5752 11.0056C2.77105 11.0056 3.09749 10.3527 4.20736 9.76513C4.66436 9.50398 5.25194 9.30812 5.77423 9.11226C9.62613 7.87182 15.5019 7.87182 20.1372 8.39411Z" fill="url(#paint6_radial_1_107)"/>
<path fill-rule="evenodd" clip-rule="evenodd" d="M5.9699 5.52233C8.45079 3.95546 11.7804 3.36788 15.7629 3.36788C16.4157 3.36788 17.5256 3.23731 17.5256 2.71502C17.5909 1.99687 16.6116 1.93158 15.8282 1.86629C11.1275 1.40929 7.53678 3.89017 6.23105 5.06533C5.77405 5.45705 5.64347 5.71819 5.9699 5.52233Z" fill="url(#paint7_radial_1_107)"/>
<path fill-rule="evenodd" clip-rule="evenodd" d="M20.0079 17.8608C19.2898 17.7955 18.5063 17.8608 17.7229 17.8608C16.9394 17.8608 16.0907 17.8608 15.3073 17.8608C10.6067 17.6649 6.03661 17.4691 2.38057 16.1633C2.25 16.2286 2.25 16.3592 2.25 16.555C2.25 17.2079 2.707 18.8401 4.14331 19.8847C4.27388 19.9499 4.40445 20.0805 4.53502 20.1458C11.3901 24.7158 20.4649 22.3655 20.4649 22.3655C21.3136 22.1044 22.0318 21.5168 22.2276 20.6681C22.6194 18.9054 21.4442 17.9261 20.0079 17.8608Z" fill="url(#paint8_radial_1_107)"/>
<path fill-rule="evenodd" clip-rule="evenodd" d="M19.1583 24.3908C18.5708 24.5214 17.1345 24.8478 16.4816 24.9131C12.0421 25.2395 8.58194 24.4561 6.03577 22.5628C5.77462 22.3669 4.79533 21.5835 4.53418 21.2571V21.3224C4.66475 21.8447 5.05647 22.3669 5.51348 22.8892C6.16634 23.6727 6.94978 24.2603 6.94978 24.2603C8.58194 25.566 10.9975 26.4147 11.9768 26.6106C13.609 26.937 14.8494 27.0023 16.9386 26.7411C17.5262 26.6759 18.3096 26.4147 18.8319 26.2188C19.3542 26.0883 19.8112 25.8924 20.0723 25.4354C20.1376 25.2396 20.2682 24.9131 20.2029 24.7173C20.1376 24.4561 19.6153 24.3255 19.1583 24.3908Z" fill="url(#paint9_radial_1_107)"/>
<path d="M12.4306 10.7445C13.0182 10.8097 13.6711 10.7445 14.3239 10.7445C14.6504 10.7445 14.9115 10.7445 15.238 10.7445C14.7157 10.418 14.0628 10.1569 13.1488 10.0916C12.3654 10.0263 11.5819 9.96102 10.8638 10.0263C11.1902 10.418 11.7778 10.6792 12.4306 10.7445Z" fill="url(#paint10_radial_1_107)"/>
<path d="M20.1361 8.39379C21.0501 8.52436 23.1393 8.91608 23.988 8.98137C24.445 9.04665 24.8367 8.98137 25.0979 8.78551C25.0326 8.78551 25.0326 8.72022 24.9673 8.72022C19.4832 5.52119 12.1712 6.95749 12.1712 6.95749C11.5183 7.15335 10.996 7.61035 10.7349 8.19793C13.8033 7.93679 17.1982 8.06736 20.1361 8.39379Z" fill="url(#paint11_radial_1_107)"/>
<path d="M25.2302 7.48113C25.2302 7.41584 25.2302 7.41584 25.2302 7.35056L25.1649 7.28527C25.0996 7.21998 25.0996 7.1547 25.0343 7.08941C25.0343 7.02412 24.969 7.02412 24.969 6.95884C24.8385 6.89355 24.7732 6.76298 24.7079 6.69769L24.6426 6.63241C24.5773 6.56712 24.512 6.50183 24.512 6.43655C23.5327 5.65311 21.77 5.26139 20.2031 5.00024C21.77 5.39196 23.141 5.91425 24.1856 6.63241C24.3815 6.76298 24.969 7.21998 25.2302 7.48113Z" fill="url(#paint12_radial_1_107)"/>
<path d="M17.5246 2.64961C17.5246 2.25789 17.3287 2.06203 16.937 1.99675C15.6313 1.80089 14.4561 1.80089 12.7587 1.99675C12.1711 2.06203 11.3877 2.32318 10.8654 2.51904C10.3431 2.64961 9.88607 2.84547 9.62493 3.30248C9.55964 3.49834 9.42907 3.82477 9.49436 4.02063V4.08591C11.3224 3.62891 13.4115 3.43305 15.6966 3.36776C16.4147 3.36776 17.5246 3.1719 17.5246 2.64961Z" fill="url(#paint13_radial_1_107)"/>
<path d="M9.55977 20.4059C8.64576 20.2753 6.62188 19.8836 5.77316 19.8183C5.25087 19.753 4.79386 19.8836 4.53271 20.21C11.3878 24.7801 20.4626 22.4298 20.4626 22.4298C21.3113 22.1686 22.0295 21.5811 22.2253 20.7323C22.2906 20.5365 22.2906 20.3406 22.2906 20.1448C18.504 20.9282 13.5422 20.8629 9.55977 20.4059Z" fill="#152754"/>
<path d="M12.1704 26.1504C12.1704 26.5421 12.3663 26.738 12.758 26.8033C14.0637 26.9991 15.1736 26.9991 16.9363 26.8033C17.5239 26.738 18.3073 26.4768 18.8296 26.281C19.3519 26.1504 19.8089 25.9546 20.0701 25.4975C20.1354 25.3017 20.2659 24.9753 20.2006 24.7794C20.2006 24.7794 20.2006 24.7794 20.2006 24.7141C18.3726 25.1711 16.2835 25.367 13.9984 25.4323C13.3456 25.4975 12.2357 25.6281 12.1704 26.1504Z" fill="#152754"/>
<path d="M15.8922 14.0086C16.0228 13.8127 16.0881 13.6169 16.1534 13.3557C14.9129 13.6821 13.9989 14.1392 13.5419 14.792C13.4113 14.9879 13.346 15.1837 13.2808 15.4449C14.5865 15.1184 15.4352 14.5962 15.8922 14.0086Z" fill="url(#paint14_radial_1_107)"/>
<path d="M17.7865 17.8605C17.003 17.8605 16.1543 17.8605 15.3709 17.8605C14.9139 17.8605 14.3916 17.7952 13.9346 17.7952C14.4569 18.3175 15.175 18.5786 16.2849 18.7092C18.3088 18.905 20.2021 18.7745 21.6384 18.5133C21.2466 18.1216 20.6591 17.9257 20.0062 17.8605C19.2881 17.7952 18.5046 17.8605 17.7865 17.8605Z" fill="url(#paint15_radial_1_107)"/>
<path fill-rule="evenodd" clip-rule="evenodd" d="M5.96985 22.5638C5.7087 22.3679 4.72941 21.5845 4.46826 21.2581V21.3233C4.53355 21.4539 4.59883 21.5845 4.66412 21.7803C5.12113 22.4985 6.03514 22.9555 7.145 23.2819C6.75329 23.0861 6.36157 22.8249 5.96985 22.5638Z" fill="#152754"/>
<path d="M44.1651 10.289H42.794L39.8562 18.4498H41.8148L42.5982 16.0995H45.2749L46.0584 18.4498C46.7112 18.4498 47.4294 18.4498 48.0822 18.4498L45.4055 11.1377C45.1444 10.4196 44.8179 10.289 44.1651 10.289ZM43.1205 14.6632L43.9039 12.3129V12.2476L44.6874 14.6632H43.1205ZM54.1539 15.0549L51.4771 11.0724C51.0201 10.289 50.8243 10.289 50.1714 10.289H49.1921V18.4498H51.0854V13.8145L54.1539 18.4498H56.1125V10.289H54.2192V15.0549H54.1539ZM37.3753 13.5533C37.1141 13.4227 36.853 13.2922 36.5918 13.2269C36.2001 13.031 35.4167 12.6393 35.7431 12.117C35.939 11.7906 36.4613 11.7253 36.853 11.7253C37.4406 11.7253 38.0281 11.7906 38.6157 11.9211L38.8116 10.4848L38.5504 10.4196C37.8323 10.2237 37.1141 10.1584 36.396 10.2237C35.7431 10.289 35.1555 10.4196 34.6985 10.746C34.111 11.1377 33.7845 11.7906 33.7192 12.4434V12.7699C33.7845 13.2922 33.9804 13.8145 34.3721 14.1409C34.7638 14.4673 35.2208 14.7285 35.7431 14.9896C36.1348 15.1855 36.5266 15.316 36.9183 15.5772C37.1794 15.773 37.4406 15.9689 37.4406 16.1648C37.4406 16.6871 36.9183 16.8829 36.4613 16.9482C35.6125 17.0788 34.8291 16.8176 34.0457 16.6218L33.9151 18.1886C34.8944 18.5151 36.0695 18.7109 37.1141 18.5151C37.6364 18.4498 38.0934 18.2539 38.4851 17.9928C39.5297 17.2746 39.9214 15.5119 38.9422 14.5326C38.5504 14.1409 38.0281 13.8797 37.3753 13.5533ZM74.8497 10.2237C73.5439 10.2237 72.3035 10.8766 71.6506 11.9864C70.6713 13.6186 70.8672 16.2953 72.3035 17.6011C73.0217 18.2539 73.8704 18.5804 74.8497 18.5804C76.1554 18.5804 77.3306 17.9275 78.0487 16.8176C78.5057 16.0995 78.6363 15.2508 78.6363 14.402C78.6363 12.9657 78.114 11.9211 77.3958 11.203C76.6777 10.5501 75.7637 10.2237 74.8497 10.2237ZM76.1554 16.0995C75.8943 16.6218 75.4373 17.0788 74.7844 17.0788C74.1315 17.0788 73.6745 16.6871 73.4134 16.0995C73.1522 15.5772 73.0217 14.859 73.0217 14.402C73.0217 13.8797 73.1522 13.2269 73.4134 12.7046C73.6745 12.1823 74.1315 11.7906 74.7191 11.7906H74.7844C75.4373 11.7906 75.8943 12.1823 76.1554 12.7046C76.4165 13.2269 76.5471 13.8797 76.5471 14.402C76.5471 14.859 76.4818 15.5119 76.1554 16.0995ZM84.1856 14.9896C85.8831 14.402 86.5359 11.9211 85.0996 10.8766C84.4468 10.4196 83.5328 10.2237 82.227 10.2237C81.1172 10.2237 80.3337 10.289 79.6809 10.4196V18.4498H81.5742V11.8559C81.7047 11.7906 81.9659 11.7906 82.4882 11.7906C84.7732 11.7906 83.9898 14.0756 82.0965 14.1409C81.5742 14.1409 81.5089 14.0103 82.4882 15.7078C83.0105 16.6218 83.5328 17.5358 84.0551 18.5151H86.2748L84.1856 14.9896ZM65.0567 18.4498H66.95V15.2508H70.0838V13.6839H66.8847V11.7906H70.0838V10.289H65.0567V18.4498ZM60.6825 14.859V15.5772H61.9883C61.9883 16.0342 61.9883 16.4912 61.9883 17.0135C61.2048 17.0788 60.4867 16.9482 59.9644 16.6218C58.7239 15.773 58.8545 12.8352 60.1602 12.117C61.009 11.66 62.5105 11.7253 63.4246 11.7906L63.5551 10.4848C62.0535 10.0931 60.2255 10.0278 58.8545 10.8766C58.1364 11.3336 57.5488 12.117 57.2876 13.031C57.0918 13.945 57.0918 14.9243 57.2876 15.8383C58.0058 18.4498 60.7478 18.7762 63.3593 18.3192C63.4898 18.3192 63.6857 18.2539 63.8163 18.2539V17.7316V14.0756H61.4007C60.8784 14.0756 60.6172 14.1409 60.6825 14.859Z" fill="white"/>
<defs>
<radialGradient id="paint0_radial_1_107" cx="0" cy="0" r="1" gradientUnits="userSpaceOnUse" gradientTransform="translate(12.3429 22.5898) scale(21.4706 21.7233)">
<stop stop-color="#CBDD77"/>
<stop offset="0.8571" stop-color="#6FB82C"/>
</radialGradient>
<radialGradient id="paint1_radial_1_107" cx="0" cy="0" r="1" gradientUnits="userSpaceOnUse" gradientTransform="translate(12.3436 22.5887) scale(21.6022 21.6445)">
<stop stop-color="#CBDD77"/>
<stop offset="0.8571" stop-color="#6FB82C"/>
</radialGradient>
<radialGradient id="paint2_radial_1_107" cx="0" cy="0" r="1" gradientUnits="userSpaceOnUse" gradientTransform="translate(12.3425 22.5901) scale(21.6019 21.6442)">
<stop stop-color="#CBDD77"/>
<stop offset="0.8571" stop-color="#6FB82C"/>
</radialGradient>
<radialGradient id="paint3_radial_1_107" cx="0" cy="0" r="1" gradientUnits="userSpaceOnUse" gradientTransform="translate(12.3426 22.5916) scale(21.6015 21.6438)">
<stop stop-color="#CBDD77"/>
<stop offset="0.8571" stop-color="#6FB82C"/>
</radialGradient>
<radialGradient id="paint4_radial_1_107" cx="0" cy="0" r="1" gradientUnits="userSpaceOnUse" gradientTransform="translate(12.3412 22.5891) rotate(180) scale(21.6817 21.5994)">
<stop stop-color="#CBDD77"/>
<stop offset="0.8571" stop-color="#6FB82C"/>
</radialGradient>
<radialGradient id="paint5_radial_1_107" cx="0" cy="0" r="1" gradientUnits="userSpaceOnUse" gradientTransform="translate(19.1623 6.45659) scale(19.5944 19.52)">
<stop stop-color="#7DCBF2"/>
<stop offset="1" stop-color="#0B308D"/>
</radialGradient>
<radialGradient id="paint6_radial_1_107" cx="0" cy="0" r="1" gradientUnits="userSpaceOnUse" gradientTransform="translate(19.1612 6.45703) scale(19.5431 19.5814)">
<stop stop-color="#7DCBF2"/>
<stop offset="1" stop-color="#0B308D"/>
</radialGradient>
<radialGradient id="paint7_radial_1_107" cx="0" cy="0" r="1" gradientUnits="userSpaceOnUse" gradientTransform="translate(19.1604 6.45759) scale(19.5418 19.5801)">
<stop stop-color="#7DCBF2"/>
<stop offset="1" stop-color="#0B308D"/>
</radialGradient>
<radialGradient id="paint8_radial_1_107" cx="0" cy="0" r="1" gradientUnits="userSpaceOnUse" gradientTransform="translate(19.1622 6.4569) scale(19.5802 19.5363)">
<stop stop-color="#7DCBF2"/>
<stop offset="1" stop-color="#0B308D"/>
</radialGradient>
<radialGradient id="paint9_radial_1_107" cx="0" cy="0" r="1" gradientUnits="userSpaceOnUse" gradientTransform="translate(19.161 6.45831) scale(19.5438 19.5821)">
<stop stop-color="#7DCBF2"/>
<stop offset="1" stop-color="#0B308D"/>
</radialGradient>
<radialGradient id="paint10_radial_1_107" cx="0" cy="0" r="1" gradientUnits="userSpaceOnUse" gradientTransform="translate(13.2214 20.7248) scale(14.765 14.7939)">
<stop stop-color="#18923B"/>
<stop offset="1" stop-color="#007440"/>
</radialGradient>
<radialGradient id="paint11_radial_1_107" cx="0" cy="0" r="1" gradientUnits="userSpaceOnUse" gradientTransform="translate(16.8076 7.517) scale(11.3397 11.3619)">
<stop stop-color="#18923B"/>
<stop offset="1" stop-color="#007440"/>
</radialGradient>
<radialGradient id="paint12_radial_1_107" cx="0" cy="0" r="1" gradientUnits="userSpaceOnUse" gradientTransform="translate(20.2348 5.10513) scale(10.5177 10.5383)">
<stop stop-color="#18923B"/>
<stop offset="1" stop-color="#007440"/>
</radialGradient>
<radialGradient id="paint13_radial_1_107" cx="0" cy="0" r="1" gradientUnits="userSpaceOnUse" gradientTransform="translate(17.9308 3.121) scale(10.1918 10.2118)">
<stop stop-color="#18923B"/>
<stop offset="1" stop-color="#007440"/>
</radialGradient>
<radialGradient id="paint14_radial_1_107" cx="0" cy="0" r="1" gradientUnits="userSpaceOnUse" gradientTransform="translate(14.7207 14.3615) scale(1.23697 1.2394)">
<stop stop-color="#007941"/>
<stop offset="1" stop-color="#007941"/>
</radialGradient>
<radialGradient id="paint15_radial_1_107" cx="0" cy="0" r="1" gradientUnits="userSpaceOnUse" gradientTransform="translate(17.7935 18.2555) scale(2.75615 2.76155)">
<stop stop-color="#00663B"/>
<stop offset="1" stop-color="#006C46"/>
</radialGradient>
</defs>
</svg>
