<svg width="99" height="22" viewBox="0 0 99 22" fill="none" xmlns="http://www.w3.org/2000/svg">
<path d="M25.084 11.3097C25.084 7.86327 27.7238 5.37012 31.2435 5.37012C33.1501 5.37012 34.7633 6.03007 35.7899 7.27665L34.3966 8.59655C33.59 7.71662 32.4901 7.27665 31.3169 7.27665C28.897 7.27665 27.2105 8.96319 27.2105 11.3097C27.2105 13.6562 28.9704 15.3427 31.3169 15.3427C32.4901 15.3427 33.5167 14.9028 34.3966 13.9495L35.7899 15.2694C34.69 16.516 33.0767 17.1759 31.2435 17.1759C27.6505 17.2493 25.084 14.7561 25.084 11.3097Z" fill="#FCFEFF"/>
<path d="M36.9624 5.37012H39.0156V17.1759H36.9624V5.37012Z" fill="#FCFEFF"/>
<path d="M40.7759 6.61669C40.7759 5.95674 41.3625 5.37012 42.0958 5.37012C42.8291 5.37012 43.4157 5.88341 43.4157 6.54337C43.4157 7.27665 42.9024 7.78994 42.0958 7.78994C41.3625 7.86327 40.7759 7.27665 40.7759 6.61669Z" fill="#FCFEFF"/>
<path d="M43.1225 8.52246H41.0693V17.1752H43.1225V8.52246Z" fill="#FCFEFF"/>
<path d="M44.4424 12.8488C44.4424 10.3557 46.3489 8.52246 48.9887 8.52246C50.6019 8.52246 51.9218 9.18241 52.5818 10.5023L51.0419 11.3823C50.5286 10.5756 49.7953 10.209 48.9154 10.209C47.4488 10.209 46.3489 11.2356 46.3489 12.8488C46.3489 14.462 47.4488 15.4886 48.9154 15.4886C49.722 15.4886 50.5286 15.122 51.0419 14.3154L52.5818 15.1953C51.9218 16.4419 50.6019 17.1752 48.9887 17.1752C46.3489 17.1752 44.4424 15.342 44.4424 12.8488Z" fill="#FCFEFF"/>
<path d="M57.5687 13.4362L56.0288 14.9028V17.2493H53.9756V5.37012H56.0288V12.3363L60.2085 8.52322H62.7016L59.1086 12.1163L63.1416 17.1759H60.6484L57.5687 13.4362Z" fill="#FCFEFF"/>
<path d="M72.1622 12.3355V17.2485H70.1824V12.5555C70.1824 11.0156 69.4491 10.2823 68.1292 10.2823C66.6626 10.2823 65.7094 11.1623 65.7094 12.8488V17.1752H63.7295V8.52246H65.636V9.69571C66.296 8.8891 67.3226 8.52246 68.5692 8.52246C70.6223 8.52246 72.1622 9.69571 72.1622 12.3355Z" fill="#FCFEFF"/>
<path d="M82.282 13.5106H75.6825C75.9025 14.7572 76.9291 15.4905 78.3956 15.4905C79.3489 15.4905 80.0822 15.1972 80.6688 14.6106L81.6954 15.8571C80.9621 16.7371 79.7889 17.2504 78.3223 17.2504C75.5358 17.2504 73.7026 15.4172 73.7026 12.924C73.7026 10.4309 75.5358 8.59766 78.029 8.59766C80.4488 8.59766 82.282 10.2842 82.282 12.924C82.282 13.0707 82.282 13.2907 82.282 13.5106ZM75.6825 12.1907H80.4488C80.3022 10.9442 79.3489 10.1375 78.1023 10.1375C76.7824 10.1375 75.8291 10.9442 75.6825 12.1907Z" fill="#FCFEFF"/>
<path d="M89.3224 17.1752L87.1225 14.1687L84.8493 17.1752H82.5762L85.9493 12.7755L82.7228 8.52246H84.996L87.1225 11.3823L89.249 8.52246H91.4489L88.2224 12.7755L91.5955 17.1752H89.3224Z" fill="#FCFEFF"/>
<path d="M98.4123 16.5901C97.8991 16.9567 97.1658 17.1767 96.4325 17.1767C94.526 17.1767 93.426 16.1501 93.426 14.2436V10.2105H91.9595V8.5973H93.426V6.39746H95.4792V8.5973H97.8257V10.2105H95.4792V14.2436C95.4792 15.1235 95.9192 15.5635 96.7258 15.5635C97.1658 15.5635 97.5324 15.4168 97.8991 15.1968L98.4123 16.5901Z" fill="#FCFEFF"/>
<path d="M21.1984 10.0641C21.1984 9.84413 21.125 9.62414 21.0517 9.40416C20.9784 9.2575 20.905 9.11084 20.8317 8.96419C20.2451 8.23091 19.2185 7.93759 18.4119 8.45089C17.7519 8.81753 17.3853 9.55081 17.4586 10.2841C17.4586 10.3574 17.4586 10.4307 17.4586 10.5041C17.8253 13.2905 16.432 16.077 13.7922 17.4702C10.7124 19.0101 6.82605 17.9102 4.99285 14.9771C3.01299 11.6773 4.11291 7.4243 7.486 5.51777C9.97916 4.12453 12.9123 4.49117 14.9655 6.17772C15.5521 6.76435 16.432 6.911 17.2386 6.47103C18.1186 5.95774 18.4852 4.78449 17.9719 3.90455C17.8986 3.75789 17.7519 3.61124 17.6786 3.46458C17.6053 3.39125 17.6053 3.39125 17.532 3.31792C14.0855 0.384799 8.95256 -0.0551691 4.84619 2.65797C0.959801 5.29778 -0.800072 11.0174 1.03313 15.3437C3.45296 21.2833 10.4191 23.5565 15.8454 20.6234C19.6585 18.4235 21.6383 14.1705 21.1984 10.0641Z" fill="#FCFEFF"/>
<path d="M10.7855 14.5349C12.5674 14.5349 14.012 13.0904 14.012 11.3085C14.012 9.52656 12.5674 8.08203 10.7855 8.08203C9.00361 8.08203 7.55908 9.52656 7.55908 11.3085C7.55908 13.0904 9.00361 14.5349 10.7855 14.5349Z" fill="#FCFEFF"/>
</svg>
