<svg width="69" height="25" viewBox="0 0 69 25" fill="none" xmlns="http://www.w3.org/2000/svg">
<path d="M68.6104 0.735352H0.270508V24.0709H68.6104V0.735352Z" fill="#DC1915"/>
<path d="M30.0472 8.59656C32.1636 8.59656 33.6102 10.0919 33.6102 12.1634V17.7332H31.1992V12.6161C31.1992 11.4226 30.1678 10.723 29.1765 10.723C27.8907 10.723 27.1941 11.697 27.1941 12.6161V17.7195H24.7831V8.74747H27.1941V10.037C27.8907 9.07672 29.0292 8.59656 30.0472 8.59656ZM50.7153 8.74747L48.5453 14.866L46.362 8.74747H43.6161L47.2192 17.7195H49.858L53.4612 8.74747H50.7153ZM23.7383 16.1693C22.9614 17.0885 21.2871 17.8841 19.6663 17.8841C16.7596 17.8841 14.7638 15.9498 14.7638 13.2472C14.7638 10.5995 16.7596 8.61028 19.4118 8.61028C20.8718 8.61028 22.064 9.11787 22.881 10.0782C23.4436 10.7367 23.7919 11.6147 23.9258 12.5887L17.7642 15.209C18.2197 15.6754 18.876 15.9361 19.7065 15.9361C20.6307 15.9361 21.2067 15.7577 22.2247 14.9895L23.7383 16.1693ZM17.5901 11.4501C17.2151 11.9714 16.9874 12.6847 17.1079 13.6039L21.3138 11.8205C20.979 11.0659 20.3092 10.5583 19.452 10.5583C18.6483 10.5583 18.0054 10.8876 17.5901 11.4501ZM14.5227 15.4696H9.05768V6.05859H6.60645V17.7195H14.5227V15.4696ZM57.7877 17.8841C60.4398 17.8841 62.516 15.84 62.516 13.2472C62.516 10.6132 60.4532 8.61028 57.8145 8.61028C55.1623 8.61028 53.0861 10.6544 53.0861 13.2472C53.0995 15.8675 55.1623 17.8841 57.7877 17.8841ZM57.7877 10.7092C59.1138 10.7092 60.1451 11.8205 60.1451 13.2335C60.1451 14.6877 59.1673 15.7577 57.8279 15.7577C56.5152 15.7577 55.4704 14.6465 55.4704 13.2335C55.4704 11.7519 56.4482 10.7092 57.7877 10.7092ZM39.2494 17.8841C41.9015 17.8841 43.9777 15.84 43.9777 13.2472C43.9777 10.6132 41.9149 8.61028 39.2762 8.61028C36.624 8.61028 34.5478 10.6544 34.5478 13.2472C34.5612 15.8675 36.624 17.8841 39.2494 17.8841ZM39.2494 10.7092C40.5755 10.7092 41.6069 11.8205 41.6069 13.2335C41.6069 14.6877 40.629 15.7577 39.2896 15.7577C37.9769 15.7577 36.9321 14.6465 36.9321 13.2335C36.9321 11.7519 37.9099 10.7092 39.2494 10.7092ZM62.8509 17.7332H63.092V16.6632H63.4804V16.43H62.4624V16.6632H62.8509V17.7332ZM63.7483 17.7332H63.976V16.8141L64.3645 17.4314H64.3913L64.7797 16.8141V17.7332H65.0074V16.4437H64.7529L64.3779 17.061L64.0028 16.4437H63.7483V17.7332Z" fill="white"/>
</svg>
