<svg width="170" height="28" viewBox="0 0 170 28" fill="none" xmlns="http://www.w3.org/2000/svg">
<path fill-rule="evenodd" clip-rule="evenodd" d="M104.014 27.4998V3.35278H108.77L115.51 22.0341L122.434 3.35278H126.712V27.4998H123.48V7.88523L116.791 25.8852H113.461L106.968 7.83796V27.4998H104.014Z" fill="#F83D3D"/>
<path fill-rule="evenodd" clip-rule="evenodd" d="M131.286 27.4998V3.35278H134.519V15.2312L144.35 3.35278H147.815L138.3 14.8747L149.495 27.4998H145.138L134.519 15.2633V27.4998H131.286Z" fill="#F83D3D"/>
<path fill-rule="evenodd" clip-rule="evenodd" d="M157.326 27.4998V5.91416H148.709V3.35278H169.389V5.91416H160.772V27.4998H157.326Z" fill="#F83D3D"/>
<path fill-rule="evenodd" clip-rule="evenodd" d="M48.9128 10.4645C48.7933 9.25647 48.3513 8.35508 47.5873 7.76288C46.8226 7.17068 45.6758 6.87442 44.1474 6.87442C41.3283 6.87442 39.9188 7.83348 39.9188 9.75349C39.9188 10.4409 40.2108 11.0161 40.7966 11.4784C41.3819 11.9404 42.3197 12.3253 43.6097 12.6335C45.1385 12.989 46.4637 13.3209 47.5873 13.6285C48.7099 13.9377 49.7368 14.2922 50.6682 14.696C51.1939 14.909 51.6894 15.176 52.1551 15.4956C52.6215 15.8161 53.0156 16.2123 53.3377 16.6866C53.6601 17.1609 53.9172 17.7304 54.1084 18.3935C54.2996 19.0573 54.3953 19.8635 54.3953 20.8106C54.3953 21.9486 54.1563 22.9566 53.6797 23.8337C53.2026 24.7108 52.5587 25.4508 51.7487 26.0553C50.9377 26.6588 49.9837 27.1221 48.8871 27.4417C47.7902 27.7623 46.6342 27.9217 45.4181 27.9217C41.9605 27.9217 39.3617 27.2514 37.6215 25.9132C35.881 24.574 34.9625 22.6001 34.8674 19.9937H39.6601C39.6835 21.2026 40.1784 22.157 41.1444 22.8548C42.1098 23.5547 43.3196 23.9046 44.7745 23.9046C46.348 23.9046 47.5403 23.6206 48.3507 23.0527C49.1613 22.4851 49.5668 21.7157 49.5668 20.7453C49.5668 20.3671 49.519 20.0182 49.4232 19.6977C49.3278 19.3788 49.143 19.0885 48.8678 18.8282C48.5926 18.5688 48.2163 18.3378 47.7385 18.136C47.2601 17.9362 46.6387 17.7512 45.8737 17.5864C44.0571 17.2079 42.4855 16.8234 41.1587 16.4329C39.8322 16.0424 38.7384 15.5576 37.8777 14.9768C37.0173 14.3978 36.3835 13.6944 35.9771 12.8664C35.5713 12.0375 35.368 10.9842 35.368 9.70621C35.368 8.73612 35.5468 7.82497 35.906 6.97243C36.2643 6.12179 36.8134 5.38241 37.5537 4.75459C38.294 4.12835 39.208 3.63038 40.2948 3.26447C41.3819 2.89793 42.6659 2.71387 44.1474 2.71387C45.5804 2.71387 46.8701 2.89793 48.0168 3.26447C49.1632 3.63227 50.1483 4.15388 50.9729 4.82991C51.7972 5.50532 52.4363 6.32287 52.8903 7.28288C53.344 8.24288 53.5941 9.30374 53.6427 10.4645H48.9128Z" fill="#2B2D40"/>
<path fill-rule="evenodd" clip-rule="evenodd" d="M74.6291 27.1055V10.9291L70.1944 27.1055H65.2588L60.8602 10.9997V27.1055H56.2461V3.49805H63.5424L67.8344 20.8119L72.1258 3.49805H79.2788V27.1055H74.6291Z" fill="#2B2D40"/>
<path fill-rule="evenodd" clip-rule="evenodd" d="M95.1726 10.4645C95.0531 9.25647 94.6112 8.35508 93.8468 7.76288C93.0824 7.17068 91.9354 6.87442 90.4072 6.87442C87.5882 6.87442 86.1783 7.83348 86.1783 9.75349C86.1783 10.4409 86.4706 11.0161 87.0562 11.4784C87.6417 11.9404 88.5795 12.3253 89.8692 12.6335C91.398 12.989 92.7232 13.3209 93.8468 13.6285C94.9697 13.9377 95.9966 14.2922 96.9281 14.696C97.4534 14.909 97.9492 15.176 98.415 15.4956C98.881 15.8161 99.2754 16.2123 99.5975 16.6866C99.9199 17.1609 100.177 17.7304 100.368 18.3935C100.559 19.0573 100.655 19.8635 100.655 20.8106C100.655 21.9486 100.416 22.9566 99.9393 23.8337C99.4621 24.7108 98.8185 25.4508 98.0085 26.0553C97.1972 26.6588 96.2436 27.1221 95.1469 27.4417C94.05 27.7623 92.8941 27.9217 91.6779 27.9217C88.2203 27.9217 85.6216 27.2514 83.8814 25.9132C82.1405 24.574 81.2224 22.6001 81.127 19.9937H85.9199C85.9431 21.2026 86.4383 22.157 87.404 22.8548C88.3697 23.5547 89.5795 23.9046 91.0343 23.9046C92.6075 23.9046 93.7999 23.6206 94.6105 23.0527C95.4212 22.4851 95.8267 21.7157 95.8267 20.7453C95.8267 20.3671 95.7788 20.0182 95.6827 19.6977C95.5876 19.3788 95.4028 19.0885 95.1276 18.8282C94.8524 18.5688 94.4758 18.3378 93.9983 18.136C93.5196 17.9362 92.8982 17.7512 92.1335 17.5864C90.3166 17.2079 88.7453 16.8234 87.4185 16.4329C86.0921 16.0424 84.9983 15.5576 84.1375 14.9768C83.2771 14.3978 82.6433 13.6944 82.2369 12.8664C81.8308 12.0375 81.6279 10.9842 81.6279 9.70621C81.6279 8.73612 81.8067 7.82497 82.1659 6.97243C82.5238 6.12179 83.0729 5.38241 83.8135 4.75459C84.5538 4.12835 85.4678 3.63038 86.5546 3.26447C87.6417 2.89793 88.9254 2.71387 90.4072 2.71387C91.8403 2.71387 93.1296 2.89793 94.2767 3.26447C95.4231 3.63227 96.4081 4.15388 97.2327 4.82991C98.0567 5.50532 98.6962 6.32287 99.1502 7.28288C99.6035 8.24288 99.854 9.30374 99.9022 10.4645H95.1726Z" fill="#2B2D40"/>
<path fill-rule="evenodd" clip-rule="evenodd" d="M19.3973 26.208C19.5409 27.129 18.7987 27.922 17.8666 27.922C17.0323 27.922 16.3448 27.2811 16.2037 26.4587C14.954 19.1753 9.17974 13.4419 1.84858 12.2055C1.02879 12.0672 0.389648 11.3823 0.389648 10.5509C0.389648 9.62344 1.17814 8.88472 2.09493 9.02496C10.9926 10.386 18.0183 17.3657 19.3973 26.208Z" fill="#F83D3D"/>
<path fill-rule="evenodd" clip-rule="evenodd" d="M27.7387 25.5623C27.9089 26.8393 26.8747 27.9217 25.5864 27.9217C24.3962 27.9217 23.4227 26.992 23.2477 25.8147C21.6648 15.1669 13.2047 6.7637 2.48719 5.20097C1.3152 5.03009 0.389648 4.06143 0.389648 2.87705C0.389648 1.59676 1.46461 0.568884 2.73416 0.734327C15.7297 2.42785 26.0179 12.648 27.7387 25.5623Z" fill="#F83D3D"/>
<path fill-rule="evenodd" clip-rule="evenodd" d="M12.5886 26.398C12.7639 27.2045 12.1132 27.9204 11.2879 27.9204C10.5858 27.9204 10.0028 27.3951 9.83589 26.7131C8.86801 22.7587 5.73988 19.6542 1.75972 18.698C1.07968 18.5346 0.555664 17.9539 0.555664 17.2545C0.555664 16.4342 1.26679 15.7872 2.0691 15.9583C7.3217 17.0784 11.4553 21.1827 12.5886 26.398Z" fill="#F83D3D"/>
<path d="M5.8651 25.2686C5.8651 26.7347 4.67659 27.9232 3.21049 27.9232C1.74439 27.9232 0.555878 26.7347 0.555878 25.2686C0.555878 23.8025 1.74439 22.614 3.21049 22.614C4.67659 22.614 5.8651 23.8025 5.8651 25.2686Z" fill="#F83D3D"/>
</svg>
